<?xml version="1.0" encoding="UTF-8"?>
<svg version="1.1" xmlns="http://www.w3.org/2000/svg" width="455" height="110">
<path d="M0 0 C0.91636734 -0.01051392 1.83273468 -0.02102783 2.77687073 -0.03186035 C5.79010265 -0.05815517 8.80120172 -0.04082662 11.81445312 -0.02050781 C13.91760664 -0.02455244 16.02075742 -0.03037794 18.12390137 -0.03790283 C22.52541893 -0.04673509 26.92620445 -0.03393525 31.32763672 -0.00585938 C36.96037821 0.02832593 42.59140435 0.0086356 48.22408295 -0.02729416 C52.56513314 -0.04900971 56.90577883 -0.0420594 61.24684143 -0.0265274 C63.32320867 -0.02253429 65.39961302 -0.02740376 67.47593689 -0.04140472 C70.38207803 -0.05670221 73.2854692 -0.03334119 76.19140625 0 C77.46964012 -0.01821808 77.46964012 -0.01821808 78.7736969 -0.0368042 C84.26211637 0.07943556 87.17492182 1.35928134 91.19976044 5.10053635 C94.93849489 9.58889146 94.8872803 13.84020431 94.87036133 19.48876953 C94.87547226 20.3672908 94.88058319 21.24581207 94.885849 22.1509552 C94.89974765 25.05480769 94.89878787 27.95842288 94.89648438 30.86230469 C94.90037145 32.88245736 94.90470614 34.90260921 94.9094696 36.92276001 C94.91693262 41.15784351 94.91664015 45.39284365 94.91137695 49.62792969 C94.90558538 55.05076846 94.92250547 60.47326534 94.94572163 65.89604759 C94.96046636 70.06881704 94.9613296 74.24150432 94.9582119 78.4142952 C94.95872484 80.41334332 94.96395751 82.41239607 94.97402382 84.41141891 C94.98638368 87.20956254 94.97959893 90.00704249 94.96801758 92.80517578 C94.97566132 93.62823715 94.98330505 94.45129852 94.99118042 95.29930115 C94.94661317 100.17997482 94.32936481 103.56425188 91.59570312 107.77636719 C88.52320673 109.82469812 87.89280443 110.02803018 84.42750549 110.04379272 C83.57933258 110.05232269 82.73115967 110.06085266 81.85728455 110.06964111 C80.92992996 110.06873474 80.00257538 110.06782837 79.04711914 110.06689453 C77.57843384 110.07697037 77.57843384 110.07697037 76.08007812 110.08724976 C72.83653723 110.10628099 69.59320266 110.11015642 66.34960938 110.11230469 C64.09903375 110.11872859 61.84845898 110.12545664 59.59788513 110.13247681 C54.87765567 110.14446209 50.15749947 110.1481563 45.43725586 110.14697266 C39.38300616 110.1467693 33.32922498 110.17408394 27.2750864 110.20851707 C22.6262953 110.23073164 17.97761797 110.23481188 13.32877922 110.2337532 C11.0964083 110.2361169 8.86403459 110.24498336 6.63171577 110.26041794 C3.51203512 110.27996931 0.39337806 110.27428249 -2.72631836 110.26220703 C-3.65164871 110.27344604 -4.57697906 110.28468506 -5.53034973 110.29626465 C-9.23881483 110.25970708 -11.70593373 110.16772061 -14.97384644 108.33642578 C-17.16867919 104.40836207 -16.98611088 100.76174196 -16.96948242 96.32958984 C-16.98722466 94.89476509 -16.98722466 94.89476509 -17.00532532 93.43095398 C-17.03823723 90.26721292 -17.04116917 87.10433072 -17.04101562 83.94042969 C-17.05132843 81.74091234 -17.06239126 79.5413984 -17.07417297 77.34188843 C-17.09361661 72.73011422 -17.09702278 68.11864334 -17.09057617 63.50683594 C-17.08458025 57.59922516 -17.12880475 51.69318576 -17.18646526 45.78589821 C-17.22345087 41.24248138 -17.22836793 36.69944376 -17.22419167 32.15589523 C-17.22706429 29.9781803 -17.24114486 27.80045009 -17.26666832 25.62288284 C-17.2986388 22.57482005 -17.28609574 19.53000404 -17.26245117 16.48193359 C-17.28133392 15.58406631 -17.30021667 14.68619904 -17.31967163 13.76112366 C-17.23601314 9.22351857 -16.74379727 6.46971638 -13.43843079 3.21829224 C-9.12551784 0.09503219 -5.1919141 -0.07399796 0 0 Z " fill="#FBD372" transform="translate(22.404296875,-0.7763671875)"/>
<path d="M0 0 C0.88494141 -0.020625 1.76988281 -0.04125 2.68164062 -0.0625 C7.61100947 -0.09208361 10.95172224 0.02521194 14.9375 3.25 C15.82115234 3.92869141 15.82115234 3.92869141 16.72265625 4.62109375 C19.37700935 8.18014598 18.42406536 13.05890292 17.9375 17.25 C17.00934695 20.81896948 15.60395847 23.96653286 13.9375 27.25 C13.45152344 28.2090625 12.96554688 29.168125 12.46484375 30.15625 C3.18110525 47.18741094 -12.19469529 58.67146353 -28.0625 69.25 C-31.25 69.375 -31.25 69.375 -34.0625 69.25 C-34.69670893 62.27370181 -33.18725432 57.91743432 -29.0625 52.25 C-27.0661505 50.34650397 -25.27591403 48.83652117 -23.0625 47.25 C-12.2652822 39.3925289 -6.01705685 32.54550582 -3.0625 19.25 C-17.9125 18.92 -32.7625 18.59 -48.0625 18.25 C-46.38804888 13.22664664 -41.64663545 11.56033135 -37.09765625 9.21582031 C-24.98812255 3.46902145 -13.40196059 0.07843137 0 0 Z " fill="#275260" transform="translate(84.0625,5.75)"/>
<path d="M0 0 C1.19625 0.12375 2.3925 0.2475 3.625 0.375 C6.33020477 3.94517634 7.47614684 7.70944522 8.66796875 11.98828125 C9.01923828 13.23544922 9.37050781 14.48261719 9.73242188 15.76757812 C10.09260812 17.0741746 10.45263215 18.3808158 10.8125 19.6875 C11.18357005 21.01386083 11.55530831 22.34003491 11.92773438 23.66601562 C12.83340914 26.90056837 13.73223564 30.13686463 14.625 33.375 C14.88716309 32.48192139 15.14932617 31.58884277 15.41943359 30.66870117 C16.39567042 27.35204342 17.37645705 24.03680253 18.36035156 20.72241211 C18.78503311 19.28838247 19.20790052 17.85381427 19.62890625 16.41870117 C20.23480286 14.35450861 20.8472239 12.29234874 21.4609375 10.23046875 C21.82751465 8.98934326 22.1940918 7.74821777 22.57177734 6.46948242 C23.625 3.375 23.625 3.375 25.625 0.375 C27.5703125 0.08203125 27.5703125 0.08203125 29.75 0.1875 C31.02875 0.249375 32.3075 0.31125 33.625 0.375 C36.27652394 7.09763302 38.32309411 13.93076901 40.3125 20.875 C40.63283203 21.98359375 40.95316406 23.0921875 41.28320312 24.234375 C42.06662432 26.94711706 42.8471479 29.66065685 43.625 32.375 C45.35530556 29.20889895 46.34815978 26.1015314 47.28125 22.62109375 C47.58160156 21.51958984 47.88195312 20.41808594 48.19140625 19.28320312 C48.81478199 16.96575816 49.43717486 14.64804859 50.05859375 12.33007812 C50.35894531 11.22986328 50.65929687 10.12964844 50.96875 8.99609375 C51.37383789 7.48680298 51.37383789 7.48680298 51.78710938 5.94702148 C52.625 3.375 52.625 3.375 54.625 0.375 C58.25 0.1875 58.25 0.1875 61.625 0.375 C63.01276441 4.53829324 61.63496881 7.64145356 60.421875 11.69921875 C60.18341858 12.51945023 59.94496216 13.3396817 59.69927979 14.18476868 C59.19206148 15.92343286 58.68069548 17.66089155 58.16552734 19.3972168 C57.38391334 22.03244844 56.6146458 24.67102619 55.84765625 27.31054688 C55.35229101 29.00281759 54.85621914 30.69488165 54.359375 32.38671875 C54.13111023 33.16722092 53.90284546 33.94772308 53.66766357 34.75187683 C52.19084684 39.71696187 50.49287269 44.54302882 48.625 49.375 C45.3125 50.0625 45.3125 50.0625 41.625 50.375 C38.10422586 48.0442248 37.49510716 44.4071072 36.36328125 40.51953125 C36.16776169 39.85789474 35.97224213 39.19625824 35.77079773 38.51457214 C35.15057634 36.40809564 34.54389715 34.29799281 33.9375 32.1875 C33.51846629 30.75559916 33.09855428 29.32395504 32.67773438 27.89257812 C31.64996137 24.38963627 30.63429385 20.8833168 29.625 17.375 C27.81261294 20.68573422 26.75917743 24.01525184 25.71484375 27.63671875 C25.36486328 28.83748047 25.01488281 30.03824219 24.65429688 31.27539062 C24.29400391 32.52513672 23.93371094 33.77488281 23.5625 35.0625 C22.84537448 37.54641971 22.12547675 40.02954132 21.40234375 42.51171875 C21.08515381 43.61217529 20.76796387 44.71263184 20.44116211 45.84643555 C19.625 48.375 19.625 48.375 18.625 49.375 C15.95441149 49.51615161 13.30067762 49.41747107 10.625 49.375 C8.0747907 44.65417132 6.45132132 39.99149489 4.9609375 34.87109375 C4.72339752 34.07018814 4.48585754 33.26928253 4.24111938 32.44410706 C3.74274447 30.75982147 3.24705065 29.07474047 2.75390625 27.38891602 C2.00084657 24.81539308 1.23943078 22.24445861 0.4765625 19.67382812 C-0.00830268 18.03139463 -0.4926939 16.38882112 -0.9765625 14.74609375 C-1.20260162 13.98139267 -1.42864075 13.21669159 -1.66152954 12.42881775 C-3.89532011 4.77632945 -3.89532011 4.77632945 -4.375 1.375 C-3.375 0.375 -3.375 0.375 0 0 Z " fill="#214654" transform="translate(308.375,29.625)"/>
<path d="M0 0 C1 1 1 1 1.375 3.78125 C1 7 1 7 -1.125 9.34375 C-2.07375 10.0553125 -3.0225 10.766875 -4 11.5 C-5.00417969 12.27085938 -6.00835937 13.04171875 -7.04296875 13.8359375 C-8.79244342 15.11626639 -10.54415405 16.39356473 -12.30078125 17.6640625 C-20.571386 23.67028809 -25.7327804 29.7714518 -28 40 C-28.29607113 44.39808889 -28.18997811 48.58300905 -28 53 C-22.06 53 -16.12 53 -10 53 C-10 57.95 -10 62.9 -10 68 C-13.97958568 68.08146233 -17.95747828 68.14072862 -21.9375 68.1875 C-23.05447266 68.21263672 -24.17144531 68.23777344 -25.32226562 68.26367188 C-31.98117467 68.32225465 -37.94570705 68.00070283 -44 65 C-47.23899376 61.76100624 -46.49420423 57.51662059 -46.50634766 53.16040039 C-46.21514434 41.95839106 -42.25980196 28.9612549 -34 21 C-33.34 20.67 -32.68 20.34 -32 20 C-31.57847656 19.2575 -31.15695313 18.515 -30.72265625 17.75 C-24.85199074 8.37823465 -11.45842255 -1.46277735 0 0 Z " fill="#255060" transform="translate(74,31)"/>
<path d="M0 0 C3.5 0.125 3.5 0.125 4.5 1.125 C4.59868509 2.77691396 4.62798837 4.43303217 4.62939453 6.08789062 C4.63254669 7.14568726 4.63569885 8.20348389 4.63894653 9.29333496 C4.6369223 10.44434692 4.63489807 11.59535889 4.6328125 12.78125 C4.63376923 13.95385376 4.63472595 15.12645752 4.63571167 16.33459473 C4.6363937 18.81958062 4.63453784 21.30456829 4.63037109 23.78955078 C4.62502319 27.60843887 4.63031536 31.42720935 4.63671875 35.24609375 C4.63605797 37.65364609 4.63477682 40.06119837 4.6328125 42.46875 C4.63483673 43.61976196 4.63686096 44.77077393 4.63894653 45.95666504 C4.63421829 47.54335999 4.63421829 47.54335999 4.62939453 49.16210938 C4.62859894 50.09841187 4.62780334 51.03471436 4.62698364 51.99938965 C4.5 54.125 4.5 54.125 3.5 55.125 C1.16706666 55.16820247 -1.1670134 55.16522391 -3.5 55.125 C-6.55270463 54.96688612 -6.55270463 54.96688612 -9.5 56.125 C-15.9176338 56.9229296 -20.56096339 56.34736686 -25.875 52.5546875 C-30.43662888 48.54133132 -31.33033834 44.16093992 -31.8125 38.375 C-31.74179249 33.63759692 -30.17133922 29.99887134 -27.5 26.125 C-23.11146619 22.04993289 -20.54385764 20.97367884 -14.625 20.9375 C-13.57570313 20.92332031 -12.52640625 20.90914062 -11.4453125 20.89453125 C-8.51355089 21.12393965 -7.03279844 21.75031497 -4.5 23.125 C-4.50785522 22.13318726 -4.50785522 22.13318726 -4.51586914 21.12133789 C-4.53657656 18.14340149 -4.54964012 15.16548018 -4.5625 12.1875 C-4.57087891 11.14658203 -4.57925781 10.10566406 -4.58789062 9.03320312 C-4.59272461 7.54916992 -4.59272461 7.54916992 -4.59765625 6.03515625 C-4.60551147 4.66049194 -4.60551147 4.66049194 -4.61352539 3.25805664 C-4.42110116 -0.35744977 -3.75731734 0.13418991 0 0 Z M-20.5 30.125 C-23.32368571 34.36052856 -23.16653757 38.14977314 -22.5 43.125 C-20.70353146 46.05923195 -19.5558929 47.59705355 -16.5 49.125 C-12.4579108 49.67619398 -10.75138302 49.27203535 -7.1875 47.1875 C-4.06006034 44.29873337 -3.52486071 41.43547548 -3.32421875 37.27734375 C-3.57389459 34.22020177 -4.52945119 32.44743253 -6.5 30.125 C-10.94937787 27.15874809 -16.01140771 26.96636098 -20.5 30.125 Z " fill="#1D4857" transform="translate(295.5,23.875)"/>
<path d="M0 0 C2 2 2 2 2 6 C-1 8 -1 8 -3.4375 7.75 C-6 7 -6 7 -7.796875 5.984375 C-12.28873517 3.97737365 -17.21348904 4.28045914 -22 5 C-25.88863689 7.001209 -28.24277741 9.45495997 -30.16015625 13.3671875 C-31.94257219 18.95485422 -31.71820825 24.84537524 -29.875 30.375 C-26.95234273 34.46672017 -24.49966792 37.2905233 -19.6328125 38.671875 C-13.29821558 39.6345797 -10.24439574 38.49626382 -5 35 C-2.25 34.125 -2.25 34.125 0 34 C0.99 34.66 1.98 35.32 3 36 C2.9375 38.1875 2.9375 38.1875 2 41 C-4.41440011 46.95269522 -10.75931496 47.45292553 -19.265625 47.265625 C-27.74632388 46.66239537 -31.84125031 42.60926758 -37.3359375 36.4140625 C-41.82923053 29.89562331 -41.72356263 22.62946418 -41 15 C-38.97220152 6.9252336 -33.86055714 1.49327649 -27 -2.9375 C-18.17324922 -6.13994926 -7.71451631 -5.14301088 0 0 Z " fill="#1E4B58" transform="translate(165,33)"/>
<path d="M0 0 C4.02131013 2.01065507 6.68569682 4.15839012 9 8 C9.29296875 11.015625 9.29296875 11.015625 9.1875 14.25 C9.14689453 15.86648437 9.14689453 15.86648437 9.10546875 17.515625 C9.07066406 18.33546875 9.03585937 19.1553125 9 20 C4.26120232 21.14850697 -0.46291362 21.32901557 -5.3125 21.5625 C-6.14845703 21.60568359 -6.98441406 21.64886719 -7.84570312 21.69335938 C-9.89696935 21.79885307 -11.9484648 21.89987315 -14 22 C-10.62634726 25.84748329 -10.62634726 25.84748329 -6 27.5625 C-2.8501247 27.22868904 -2.8501247 27.22868904 -0.5 24.875 C0.325 24.25625 1.15 23.6375 2 23 C5.3125 23.75 5.3125 23.75 8 25 C7.70540991 28.53508103 7.25118587 29.76203444 4.625 32.25 C-0.33478651 35.55652434 -5.20930811 35.63363194 -11 35 C-15.84417776 33.31824772 -19.24315269 30.28842915 -22 26 C-24.44501875 20.87710358 -24.2068111 16.42059317 -23 11 C-21.0194858 6.41354607 -17.92314331 3.94235748 -14 1 C-9.37164486 -0.54278505 -4.8335155 -0.50478774 0 0 Z M-15 12 C-15 12.66 -15 13.32 -15 14 C-9.39 14 -3.78 14 2 14 C0.45957252 9.19695965 0.45957252 9.19695965 -2 7 C-8.31440543 6.2753961 -10.94669509 6.6800373 -15 12 Z " fill="#1F4857" transform="translate(442,45)"/>
<path d="M0 0 C5.22600955 2.66357906 8.00419699 6.86415347 9.81640625 12.30078125 C10.37997305 17.99063836 10.14437058 22.46986528 6.81640625 27.30078125 C2.02201743 32.12917283 -1.54998412 34.43074172 -8.49609375 34.61328125 C-13.57865022 34.55301378 -16.31732704 33.79883208 -20.18359375 30.30078125 C-24.8974702 25.3813952 -26.57393208 21.4651516 -26.453125 14.7109375 C-25.90524383 9.81176822 -24.05525664 6.15444738 -20.55859375 2.69140625 C-14.54092919 -1.77169496 -7.06871269 -2.26350549 0 0 Z M-16.18359375 9.30078125 C-18.43025834 12.87502037 -18.52029099 16.20929722 -17.8515625 20.36328125 C-16.57848141 24.05596089 -14.50282427 25.29671754 -11.18359375 27.30078125 C-7.04953884 28.16204269 -5.51279928 27.48367321 -1.80859375 25.42578125 C0.20292533 23.58803215 0.76329015 22.58919237 1.26171875 19.8828125 C1.35187168 15.52327455 1.20501346 12.05315406 -1.18359375 8.30078125 C-6.31863958 4.87741737 -11.44893399 5.37777745 -16.18359375 9.30078125 Z " fill="#224C59" transform="translate(213.18359375,45.69921875)"/>
<path d="M0 0 C3.5 0.125 3.5 0.125 4.5 1.125 C4.65806531 3.04978813 4.751135 4.9799921 4.81640625 6.91015625 C4.87924805 8.66489258 4.87924805 8.66489258 4.94335938 10.45507812 C4.98267578 11.68677734 5.02199219 12.91847656 5.0625 14.1875 C5.10568359 15.42306641 5.14886719 16.65863281 5.19335938 17.93164062 C5.29984198 20.99597335 5.40185424 24.06039073 5.5 27.125 C10.82170494 27.42062367 10.82170494 27.42062367 15.5 25.125 C16.45276573 22.26670282 16.67603382 20.2525106 16.78125 17.2734375 C16.81863281 16.34015625 16.85601562 15.406875 16.89453125 14.4453125 C16.96512315 12.47396832 17.03543345 10.50261403 17.10546875 8.53125 C17.14285156 7.60054687 17.18023437 6.66984375 17.21875 5.7109375 C17.26418945 4.42775635 17.26418945 4.42775635 17.31054688 3.11865234 C17.5 1.125 17.5 1.125 18.5 0.125 C21.5 0 21.5 0 24.5 0.125 C25.5 1.125 25.5 1.125 25.61352539 4.26782227 C25.61336633 5.65902697 25.60767506 7.05023761 25.59765625 8.44140625 C25.5962413 9.17246078 25.59482635 9.90351532 25.59336853 10.65672302 C25.58775408 13.00035632 25.57519922 15.34389539 25.5625 17.6875 C25.55748686 19.27278508 25.55292363 20.85807166 25.54882812 22.44335938 C25.53777997 26.3372761 25.52050572 30.23112205 25.5 34.125 C22.16666667 34.125 18.83333333 34.125 15.5 34.125 C14.51 34.62 14.51 34.62 13.5 35.125 C8.639706 35.73690752 4.03094221 36.11300488 0 33 C-5.36824957 26.82651299 -4.77886229 20.08791182 -4.6875 12.3125 C-4.68685547 11.25095703 -4.68621094 10.18941406 -4.68554688 9.09570312 C-4.63412539 0.16550448 -4.63412539 0.16550448 0 0 Z " fill="#193F4E" transform="translate(232.5,44.875)"/>
<path d="M0 0 C2.47067185 1.07359365 3.93896286 2.21748139 6 4 C5.8125 5.875 5.8125 5.875 5 8 C2.4375 9.25 2.4375 9.25 0 10 C-0.66 9.34 -1.32 8.68 -2 8 C-4.32275177 7.59952556 -6.65739357 7.2602896 -9 7 C-9 8.32 -9 9.64 -9 11 C-8.09636719 11.32613281 -7.19273437 11.65226562 -6.26171875 11.98828125 C-4.49248047 12.64376953 -4.49248047 12.64376953 -2.6875 13.3125 C-1.51574219 13.74175781 -0.34398437 14.17101563 0.86328125 14.61328125 C5.33475414 16.59008433 5.33475414 16.59008433 7 19 C7.92402251 23.44529748 7.56862505 27.04552224 5.25 30.9375 C0.66945189 35.13633577 -3.16576676 35.41718141 -9.2265625 35.3359375 C-13.29938835 34.8426093 -15.68329765 33.35854389 -19 31 C-18.8125 28.625 -18.8125 28.625 -18 26 C-15.4375 24.6875 -15.4375 24.6875 -13 24 C-12.649375 24.495 -12.29875 24.99 -11.9375 25.5 C-9.05625711 27.73063966 -6.52990974 27.19980621 -3 27 C-2.67 25.68 -2.34 24.36 -2 23 C-2.58007812 22.82984375 -3.16015625 22.6596875 -3.7578125 22.484375 C-8.79617028 20.92132011 -12.82048055 19.23912757 -17 16 C-18.60847182 12.78305636 -18.61309149 9.47862778 -18 6 C-12.77413055 -0.46357538 -7.96811523 -0.86293231 0 0 Z " fill="#1F4555" transform="translate(408,45)"/>
<path d="M0 0 C2.31 0 4.62 0 7 0 C8.66716684 1.66716684 8.12744882 3.6730614 8.12939453 5.96289062 C8.13254669 7.02068726 8.13569885 8.07848389 8.13894653 9.16833496 C8.1369223 10.31934692 8.13489807 11.47035889 8.1328125 12.65625 C8.13376923 13.82885376 8.13472595 15.00145752 8.13571167 16.20959473 C8.1363937 18.69458062 8.13453784 21.17956829 8.13037109 23.66455078 C8.12502319 27.48343887 8.13031536 31.30220935 8.13671875 35.12109375 C8.13605797 37.52864609 8.13477682 39.93619837 8.1328125 42.34375 C8.13483673 43.49476196 8.13686096 44.64577393 8.13894653 45.83166504 C8.13579437 46.88946167 8.13264221 47.9472583 8.12939453 49.03710938 C8.12820114 50.44156311 8.12820114 50.44156311 8.12698364 51.87438965 C8 54 8 54 7 55 C4.69 55 2.38 55 0 55 C0 36.85 0 18.7 0 0 Z " fill="#1F485A" transform="translate(173,24)"/>
<path d="M0 0 C0.33 0.66 0.66 1.32 1 2 C2.29212402 1.99476318 3.58424805 1.98952637 4.91552734 1.98413086 C9.69758413 1.96606633 14.47963789 1.95456264 19.26171875 1.94506836 C21.33366401 1.94003148 23.4056057 1.93320175 25.47753906 1.92456055 C28.45118082 1.91246679 31.42477569 1.90676533 34.3984375 1.90234375 C35.32868744 1.89718246 36.25893738 1.89202118 37.21737671 1.88670349 C38.07811798 1.88662796 38.93885925 1.88655243 39.82568359 1.88647461 C40.58513275 1.884254 41.34458191 1.88203339 42.12704468 1.87974548 C44 2 44 2 46 3 C46.55781515 11.28458804 43.04846857 15.73012775 38 22 C33.90669193 26.23142582 29.68908574 29.9483051 24.6875 33.0625 C19.27342047 36.96567362 16.99106587 42.06421328 15.6875 48.5 C15.460625 49.985 15.23375 51.47 15 53 C17.97 52.34 20.94 51.68 24 51 C23.01 52.32 22.02 53.64 21 55 C17.535 54.505 17.535 54.505 14 54 C14 53.01 14 52.02 14 51 C13.01 51.495 13.01 51.495 12 52 C12 54.97 12 57.94 12 61 C17.94 61 23.88 61 30 61 C30 66.61 30 72.22 30 78 C25.7818576 78.06889888 21.56566905 78.12861776 17.34741211 78.16479492 C15.91277448 78.17987589 14.47818292 78.2003438 13.04370117 78.22631836 C10.98084141 78.26273437 8.91859142 78.27973243 6.85546875 78.29296875 C5.61434326 78.3086792 4.37321777 78.32438965 3.09448242 78.34057617 C-0 78 -0 78 -1.9284668 76.48168945 C-2.28207275 75.99273193 -2.63567871 75.50377441 -3 75 C-1.66775391 75.23009766 -1.66775391 75.23009766 -0.30859375 75.46484375 C5.40655989 76.28129427 11.17482093 76.36265724 16.9375 76.5625 C18.67870117 76.62727539 18.67870117 76.62727539 20.45507812 76.69335938 C23.30326601 76.79884782 26.1516187 76.89986992 29 77 C29 72.05 29 67.1 29 62 C23.06 62 17.12 62 11 62 C8.5833934 57.16678679 9.46963472 51.01538808 10.80078125 45.95703125 C15.28579833 34.043223 23.5382637 26.76185395 34 20 C37.06607274 18.13840889 37.06607274 18.13840889 39 16 C39.41809201 12.83151973 39.41809201 12.83151973 39 10 C36.03 10 33.06 10 30 10 C30 9.34 30 8.68 30 8 C33.3 7.67 36.6 7.34 40 7 C40.33 5.68 40.66 4.36 41 3 C27.47 3 13.94 3 0 3 C0 2.01 0 1.02 0 0 Z " fill="#DEC87B" transform="translate(35,22)"/>
<path d="M0 0 C2.9375 0.1875 2.9375 0.1875 3.9375 1.1875 C4.0382812 3.55148468 4.07723215 5.88561311 4.0703125 8.25 C4.07126923 8.95648682 4.07222595 9.66297363 4.07321167 10.39086914 C4.07389333 11.88720793 4.07204005 13.38354967 4.06787109 14.87988281 C4.06252257 17.17780157 4.06781651 19.47552486 4.07421875 21.7734375 C4.07355797 23.22395877 4.0722768 24.67447991 4.0703125 26.125 C4.07233673 26.8166626 4.07436096 27.5083252 4.07644653 28.22094727 C4.05245224 33.07254776 4.05245224 33.07254776 2.9375 34.1875 C0.60452567 34.22842937 -1.72955225 34.22991723 -4.0625 34.1875 C-5.61727661 7.89511698 -5.61727661 7.89511698 -5.0625 2.1875 C-3.0625 0.1875 -3.0625 0.1875 0 0 Z " fill="#1D3A4D" transform="translate(380.0625,44.8125)"/>
<path d="M0 0 C1 1 1 1 1.375 3.78125 C1 7 1 7 -1.125 9.34375 C-2.07375 10.0553125 -3.0225 10.766875 -4 11.5 C-5.50433594 12.65242188 -5.50433594 12.65242188 -7.0390625 13.828125 C-8.01617187 14.54484375 -8.99328125 15.2615625 -10 16 C-11.45860017 17.08297404 -12.91697234 18.1662553 -14.375 19.25 C-15.00148438 19.71148437 -15.62796875 20.17296875 -16.2734375 20.6484375 C-18.73960422 22.5789662 -20.85523365 24.72118576 -23 27 C-23 25.68 -23 24.36 -23 23 C-22.34 23 -21.68 23 -21 23 C-21 22.34 -21 21.68 -21 21 C-20.34 21 -19.68 21 -19 21 C-18.855625 19.906875 -18.71125 18.81375 -18.5625 17.6875 C-18 14 -18 14 -17 11 C-18.98 11.33 -20.96 11.66 -23 12 C-21.56323497 8.45034523 -19.88698102 6.92912058 -16.6875 4.875 C-15.92824219 4.37742187 -15.16898438 3.87984375 -14.38671875 3.3671875 C-9.43429351 0.5302827 -5.74590237 -0.33149437 0 0 Z " fill="#204E62" transform="translate(74,31)"/>
<path d="M0 0 C12.97828709 -0.76718938 12.97828709 -0.76718938 19 4 C23.60855916 9.94261575 24.55094593 14.68395052 24 22 C23 25.0625 23 25.0625 22 27 C21.71125 26.360625 21.4225 25.72125 21.125 25.0625 C20.17176549 22.84793921 20.17176549 22.84793921 18 22 C18 21.01 18 20.02 18 19 C17.01 19 16.02 19 15 19 C14.34 15.7 13.68 12.4 13 9 C9.98509443 7.99503148 7.95818308 7.89664697 4.8125 7.9375 C3.91144531 7.94652344 3.01039063 7.95554687 2.08203125 7.96484375 C1.05142578 7.98224609 1.05142578 7.98224609 0 8 C0.66 7.34 1.32 6.68 2 6 C2.99 6 3.98 6 5 6 C5 5.34 5 4.68 5 4 C3.35 3.67 1.7 3.34 0 3 C0 2.01 0 1.02 0 0 Z " fill="#224B58" transform="translate(199,45)"/>
<path d="M0 0 C2.31 0 4.62 0 7 0 C8.66716684 1.66716684 8.12744882 3.6730614 8.12939453 5.96289062 C8.13254669 7.02068726 8.13569885 8.07848389 8.13894653 9.16833496 C8.1369223 10.31934692 8.13489807 11.47035889 8.1328125 12.65625 C8.13376923 13.82885376 8.13472595 15.00145752 8.13571167 16.20959473 C8.1363937 18.69458062 8.13453784 21.17956829 8.13037109 23.66455078 C8.12502319 27.48343887 8.13031536 31.30220935 8.13671875 35.12109375 C8.13605797 37.52864609 8.13477682 39.93619837 8.1328125 42.34375 C8.13483673 43.49476196 8.13686096 44.64577393 8.13894653 45.83166504 C8.13579437 46.88946167 8.13264221 47.9472583 8.12939453 49.03710938 C8.12820114 50.44156311 8.12820114 50.44156311 8.12698364 51.87438965 C8 54 8 54 7 55 C4.66702567 55.04092937 2.33294775 55.04241723 0 55 C0 54.01 0 53.02 0 52 C1.65 52 3.3 52 5 52 C5 35.83 5 19.66 5 3 C4.01 3 3.02 3 2 3 C2 10.59 2 18.18 2 26 C0.68 26.33 -0.64 26.66 -2 27 C-2 26.34 -2 25.68 -2 25 C-1.34 25 -0.68 25 0 25 C0 16.75 0 8.5 0 0 Z " fill="#22444C" transform="translate(292,24)"/>
<path d="M0 0 C0.99 0 1.98 0 3 0 C4.38123963 1.96722008 5.71488126 3.96868328 7 6 C9.85324437 7.42662219 11.83454549 7.31033868 15 7 C15.825 6.29875 16.65 5.5975 17.5 4.875 C18.325 4.25625 19.15 3.6375 20 3 C23.3125 3.75 23.3125 3.75 26 5 C25.70540991 8.53508103 25.25118587 9.76203444 22.625 12.25 C17.66521349 15.55652434 12.79069189 15.63363194 7 15 C2.14054247 13.31294305 -1.16594407 10.2510839 -4 6 C-4.33 5.01 -4.66 4.02 -5 3 C-4.34 2.67 -3.68 2.34 -3 2 C-3 2.66 -3 3.32 -3 4 C-2.34 4 -1.68 4 -1 4 C-0.01 5.485 -0.01 5.485 1 7 C1.33 6.67 1.66 6.34 2 6 C1.34 4.02 0.68 2.04 0 0 Z " fill="#164252" transform="translate(424,65)"/>
<path d="M0 0 C0 0.66 0 1.32 0 2 C0.66 2.33 1.32 2.66 2 3 C2 3.66 2 4.32 2 5 C1.21625 5.061875 0.4325 5.12375 -0.375 5.1875 C-1.24125 5.455625 -2.1075 5.72375 -3 6 C-4.18028284 8.15097933 -4.18028284 8.15097933 -5 11 C-5.6439524 12.4064567 -6.31225407 13.80193128 -7 15.1875 C-7.33 15.86167969 -7.66 16.53585938 -8 17.23046875 C-9 19 -9 19 -11 21 C-9.31192092 25.23084903 -9.31192092 25.23084903 -6 28 C-6 28.66 -6 29.32 -6 30 C-9.12981912 29.66466224 -10.00061159 28.99933599 -12.1875 26.625 C-15.42293098 21.93920341 -15.63443277 17.52224577 -15 12 C-13.59654877 7.42875884 -11.70910928 4.60349726 -8.0625 1.5 C-5.00544291 0.00266591 -3.33962905 -0.39289754 0 0 Z " fill="#224B5D" transform="translate(202,46)"/>
<path d="M0 0 C0.66 0.99 1.32 1.98 2 3 C1.38991336 5.01797888 0.71143088 7.01548229 0 9 C-0.44635665 11.6637413 -0.72184084 14.31112811 -1 17 C1.97 16.34 4.94 15.68 8 15 C7.01 16.32 6.02 17.64 5 19 C2.69 18.67 0.38 18.34 -2 18 C-2 17.01 -2 16.02 -2 15 C-2.99 15.495 -2.99 15.495 -4 16 C-4 18.97 -4 21.94 -4 25 C1.94 25 7.88 25 14 25 C14 30.61 14 36.22 14 42 C9.7818576 42.06889888 5.56566905 42.12861776 1.34741211 42.16479492 C-0.08722552 42.17987589 -1.52181708 42.2003438 -2.95629883 42.22631836 C-5.01915859 42.26273437 -7.08140858 42.27973243 -9.14453125 42.29296875 C-10.38565674 42.3086792 -11.62678223 42.32438965 -12.90551758 42.34057617 C-16 42 -16 42 -17.9284668 40.48168945 C-18.28207275 39.99273193 -18.63567871 39.50377441 -19 39 C-17.66775391 39.23009766 -17.66775391 39.23009766 -16.30859375 39.46484375 C-10.59344011 40.28129427 -4.82517907 40.36265724 0.9375 40.5625 C2.67870117 40.62727539 2.67870117 40.62727539 4.45507812 40.69335938 C7.30326601 40.79884782 10.1516187 40.89986992 13 41 C13 36.05 13 31.1 13 26 C7.06 26 1.12 26 -5 26 C-7.4856256 21.02874879 -6.56203983 14.74496121 -4.91796875 9.640625 C-1.56671779 1.56671779 -1.56671779 1.56671779 0 0 Z " fill="#9D9E6C" transform="translate(51,58)"/>
<path d="M0 0 C0.33 1.32 0.66 2.64 1 4 C1.66 4 2.32 4 3 4 C3 2.68 3 1.36 3 0 C3.66 0 4.32 0 5 0 C5 1.32 5 2.64 5 4 C5.66 4 6.32 4 7 4 C7 4.99 7 5.98 7 7 C8.02939697 6.98428955 8.02939697 6.98428955 9.07958984 6.96826172 C12.17802289 6.92678126 15.27639761 6.90069931 18.375 6.875 C19.45523437 6.85824219 20.53546875 6.84148438 21.6484375 6.82421875 C22.6796875 6.81777344 23.7109375 6.81132813 24.7734375 6.8046875 C26.20308838 6.78897705 26.20308838 6.78897705 27.66162109 6.77294922 C30 7 30 7 32 9 C27.1414954 10.2596123 22.35555337 10.14763888 17.375 10.125 C16.08722656 10.13080078 16.08722656 10.13080078 14.7734375 10.13671875 C13.5359375 10.13478516 13.5359375 10.13478516 12.2734375 10.1328125 C11.52497559 10.13168457 10.77651367 10.13055664 10.00537109 10.12939453 C8 10 8 10 5 9 C6.32 11.64 7.64 14.28 9 17 C7.68 16.67 6.36 16.34 5 16 C4.67 15.01 4.34 14.02 4 13 C1.98491642 12.26676204 1.98491642 12.26676204 0 12 C-1.28571429 3.42857143 -1.28571429 3.42857143 0 0 Z " fill="#3D6774" transform="translate(419,56)"/>
<path d="M0 0 C3.5 0.125 3.5 0.125 4.5 1.125 C4.58685603 2.68672745 4.60702219 4.25229344 4.59765625 5.81640625 C4.59443359 6.76064453 4.59121094 7.70488281 4.58789062 8.67773438 C4.57951172 9.67095703 4.57113281 10.66417969 4.5625 11.6875 C4.55798828 12.68458984 4.55347656 13.68167969 4.54882812 14.70898438 C4.53700007 17.18104849 4.52051849 19.65299518 4.5 22.125 C2.20366176 18.68049263 1.95983515 16.18687717 1.5 12.125 C1.066875 13.3625 0.63375 14.6 0.1875 15.875 C-0.9425337 19.10366772 -2.41442493 21.42340098 -4.5 24.125 C-4.52887236 20.31251574 -4.54675492 16.5000593 -4.5625 12.6875 C-4.57087891 11.59888672 -4.57925781 10.51027344 -4.58789062 9.38867188 C-4.59111328 8.35419922 -4.59433594 7.31972656 -4.59765625 6.25390625 C-4.60289307 5.29556885 -4.60812988 4.33723145 -4.61352539 3.34985352 C-4.42529996 -0.33896023 -3.834999 0.13696425 0 0 Z " fill="#254C50" transform="translate(232.5,44.875)"/>
<path d="M0 0 C0 0.33 0 0.66 0 1 C-3.63 1 -7.26 1 -11 1 C-10.67 1.66 -10.34 2.32 -10 3 C-9.01 3 -8.02 3 -7 3 C-7 3.66 -7 4.32 -7 5 C-7.66 5 -8.32 5 -9 5 C-9 5.66 -9 6.32 -9 7 C-10.31200404 8.35432675 -11.64631404 9.68733482 -13 11 C-13.33 11.66 -13.66 12.32 -14 13 C-12.700625 12.979375 -11.40125 12.95875 -10.0625 12.9375 C-5.30617675 12.92995028 -0.71611047 13.40112883 4 14 C3.67 14.66 3.34 15.32 3 16 C0.04132082 15.85953745 -2.91682264 15.71287776 -5.875 15.5625 C-6.71675781 15.52318359 -7.55851562 15.48386719 -8.42578125 15.44335938 C-9.23144531 15.40146484 -10.03710938 15.35957031 -10.8671875 15.31640625 C-11.98262939 15.26141968 -11.98262939 15.26141968 -13.12060547 15.20532227 C-15 15 -15 15 -17 14 C-17 12.68 -17 11.36 -17 10 C-17.66 10 -18.32 10 -19 10 C-19 11.32 -19 12.64 -19 14 C-19.66 14 -20.32 14 -21 14 C-21.57424464 10.48275159 -21.67159908 8.02621924 -19.67578125 4.9765625 C-13.83009371 -1.02844147 -7.99276588 -0.76759794 0 0 Z " fill="#1A4150" transform="translate(441,46)"/>
<path d="M0 0 C0.45375 0.495 0.9075 0.99 1.375 1.5 C2.87635519 3.22609337 2.87635519 3.22609337 5 3 C4.97679687 4.03640625 4.95359375 5.0728125 4.9296875 6.140625 C4.91092333 7.51040944 4.89272382 8.8802017 4.875 10.25 C4.85824219 10.93191406 4.84148437 11.61382812 4.82421875 12.31640625 C4.78721437 16.12785698 5.05584279 18.71923471 7 22 C7.125 24.75 7.125 24.75 7 27 C6.67 26.01 6.34 25.02 6 24 C4.68 24 3.36 24 2 24 C1.67 24.66 1.34 25.32 1 26 C-2.59272558 19.56303333 -2.68653725 13.2665956 -2 6 C-1.39485563 3.98053355 -0.744457 1.97236615 0 0 Z " fill="#255260" transform="translate(126,42)"/>
<path d="M0 0 C0.99 0 1.98 0 3 0 C3 9.24 3 18.48 3 28 C1.35 28 -0.3 28 -2 28 C-2.05783842 23.70838953 -2.0935412 19.41687855 -2.125 15.125 C-2.14175781 13.90167969 -2.15851563 12.67835937 -2.17578125 11.41796875 C-2.18222656 10.25136719 -2.18867188 9.08476563 -2.1953125 7.8828125 C-2.20578613 6.80402832 -2.21625977 5.72524414 -2.22705078 4.61376953 C-2 2 -2 2 0 0 Z " fill="#224959" transform="translate(378,48)"/>
<path d="M0 0 C0.99 0.33 1.98 0.66 3 1 C2.34 1 1.68 1 1 1 C1 1.66 1 2.32 1 3 C2.65 2.34 4.3 1.68 6 1 C7.32 5.29 8.64 9.58 10 14 C10.66 13.34 11.32 12.68 12 12 C13.0070238 17.03511899 12.97387813 20.23947038 11 25 C10.34 24.67 9.68 24.34 9 24 C8.375 20.9375 8.375 20.9375 8 18 C7.34 18 6.68 18 6 18 C5.67 18.66 5.34 19.32 5 20 C4.15960114 17.41877492 3.32749444 14.83536099 2.5 12.25 C2.26152344 11.52039062 2.02304687 10.79078125 1.77734375 10.0390625 C1.55175781 9.33007812 1.32617188 8.62109375 1.09375 7.890625 C0.88427734 7.24125977 0.67480469 6.59189453 0.45898438 5.92285156 C0 4 0 4 0 0 Z " fill="#1E4154" transform="translate(338,43)"/>
<path d="M0 0 C1.84851563 -0.05607422 1.84851563 -0.05607422 3.734375 -0.11328125 C7.83418352 0.38325112 9.47411129 1.2876289 12.25 4.3125 C12.25 5.6325 12.25 6.9525 12.25 8.3125 C9.25 10.3125 9.25 10.3125 6.8125 10.0625 C4.25 9.3125 4.25 9.3125 2.4375 8.3125 C-0.87151067 6.79980941 -4.13832248 6.67366775 -7.75 6.3125 C-6.76 5.3225 -5.77 4.3325 -4.75 3.3125 C-5.74 2.6525 -6.73 1.9925 -7.75 1.3125 C-5.82815673 -0.60934327 -2.55710692 0.05039941 0 0 Z " fill="#1C4457" transform="translate(154.75,30.6875)"/>
<path d="M0 0 C1.66611905 -0.042721 3.33382885 -0.04063832 5 0 C6 1 6 1 6.12025452 3.13233948 C6.11803391 4.07165817 6.11581329 5.01097687 6.11352539 5.97875977 C6.11344986 7.03978409 6.11337433 8.10080841 6.11329651 9.19398499 C6.10813522 10.348134 6.10297394 11.50228302 6.09765625 12.69140625 C6.0962413 13.86638168 6.09482635 15.04135712 6.09336853 16.25193787 C6.08774992 20.02215064 6.07519426 23.79230504 6.0625 27.5625 C6.0574874 30.11132727 6.05292408 32.66015547 6.04882812 35.20898438 C6.03777444 41.47267633 6.02101821 47.73633399 6 54 C5.34 54 4.68 54 4 54 C3.67 37.17 3.34 20.34 3 3 C1.68 3 0.36 3 -1 3 C-0.67 2.01 -0.34 1.02 0 0 Z " fill="#193C4B" transform="translate(175,24)"/>
<path d="M0 0 C2.05078125 0.03255208 4.1015625 0.06510417 6.15234375 0.09765625 C5.82234375 1.08765625 5.49234375 2.07765625 5.15234375 3.09765625 C3.50234375 3.09765625 1.85234375 3.09765625 0.15234375 3.09765625 C-0.63436176 5.35526482 -0.63436176 5.35526482 -0.84765625 8.09765625 C0.11666451 9.78521758 1.11444794 11.45432121 2.15234375 13.09765625 C1.82234375 14.08765625 1.49234375 15.07765625 1.15234375 16.09765625 C-0.82765625 16.09765625 -2.80765625 16.09765625 -4.84765625 16.09765625 C-5.50765625 19.06765625 -6.16765625 22.03765625 -6.84765625 25.09765625 C-7.50765625 25.09765625 -8.16765625 25.09765625 -8.84765625 25.09765625 C-8.57982252 20.00881539 -6.46233824 0.34156122 0 0 Z " fill="#193D4A" transform="translate(335.84765625,29.90234375)"/>
<path d="M0 0 C2.31 0 4.62 0 7 0 C7.90901939 3.04842865 8.06173367 5.59661636 7.87890625 8.765625 C7.83056641 9.65507813 7.78222656 10.54453125 7.73242188 11.4609375 C7.64831055 12.84152344 7.64831055 12.84152344 7.5625 14.25 C7.51029297 15.18585937 7.45808594 16.12171875 7.40429688 17.0859375 C7.27493175 19.39098887 7.13997966 21.69557289 7 24 C6.34 24 5.68 24 5 24 C5 17.07 5 10.14 5 3 C4.01 3 3.02 3 2 3 C2 10.59 2 18.18 2 26 C0.68 26.33 -0.64 26.66 -2 27 C-2 26.34 -2 25.68 -2 25 C-1.34 25 -0.68 25 0 25 C0 16.75 0 8.5 0 0 Z " fill="#1E3939" transform="translate(292,24)"/>
<path d="M0 0 C2.46325185 1.07913891 3.9424654 2.22051061 6 4 C5.8125 5.875 5.8125 5.875 5 8 C2.4375 9.25 2.4375 9.25 0 10 C-0.66 9.34 -1.32 8.68 -2 8 C-4.57061311 7.35232207 -4.57061311 7.35232207 -7 7 C-6.67 5.68 -6.34 4.36 -6 3 C-8.97 3.66 -11.94 4.32 -15 5 C-15 4.01 -15 3.02 -15 2 C-10.22719231 -0.80094348 -5.38935573 -0.66880894 0 0 Z " fill="#124351" transform="translate(408,45)"/>
<path d="M0 0 C1.4540625 0.0309375 1.4540625 0.0309375 2.9375 0.0625 C2.77451416 0.59262695 2.61152832 1.12275391 2.44360352 1.66894531 C1.82042397 4.61619677 1.82563156 7.34639145 1.83984375 10.359375 C1.84306641 11.56464844 1.84628906 12.76992188 1.84960938 14.01171875 C1.85798828 15.26597656 1.86636719 16.52023438 1.875 17.8125 C1.87951172 19.08222656 1.88402344 20.35195312 1.88867188 21.66015625 C1.90045444 24.79431836 1.91690584 27.92838541 1.9375 31.0625 C0.9475 31.0625 -0.0425 31.0625 -1.0625 31.0625 C-1.0625 30.4025 -1.0625 29.7425 -1.0625 29.0625 C-1.7225 29.0625 -2.3825 29.0625 -3.0625 29.0625 C-2.90910156 28.29679687 -2.75570312 27.53109375 -2.59765625 26.7421875 C-1.8929832 21.89691732 -1.70203203 17.07601261 -1.5 12.1875 C-1.45681641 11.21296875 -1.41363281 10.2384375 -1.36914062 9.234375 C-1.26367726 6.84387198 -1.16155825 4.45327556 -1.0625 2.0625 C-2.0525 1.7325 -3.0425 1.4025 -4.0625 1.0625 C-3.0625 0.0625 -3.0625 0.0625 0 0 Z " fill="#1C495B" transform="translate(254.0625,44.9375)"/>
<path d="M0 0 C1 1 1 1 1.0625 4.0625 C1.041875 5.031875 1.02125 6.00125 1 7 C-1.1875 8.1875 -1.1875 8.1875 -4 9 C-6.8125 7.75 -6.8125 7.75 -9 6 C-9 5.34 -9 4.68 -9 4 C-9.99 4 -10.98 4 -12 4 C-12 4.66 -12 5.32 -12 6 C-12.61875 6.103125 -13.2375 6.20625 -13.875 6.3125 C-16.36526484 6.87525373 -16.36526484 6.87525373 -18 10 C-20.625 10.6875 -20.625 10.6875 -23 11 C-16.2618371 3.86547457 -10.01521411 -0.57780081 0 0 Z " fill="#395C5F" transform="translate(74,31)"/>
<path d="M0 0 C0.8125 1.6875 0.8125 1.6875 1 4 C-1.95477433 7.47620509 -5.41377095 10.20099196 -9 13 C-13.05515281 16.01521965 -13.05515281 16.01521965 -16 20 C-16.66 20 -17.32 20 -18 20 C-18.4375 17.9375 -18.4375 17.9375 -18 15 C-14.09285125 9.67666788 -8.44739134 6.02649024 -3.0390625 2.3828125 C-1.09527779 1.15806059 -1.09527779 1.15806059 0 0 Z " fill="#DAC774" transform="translate(70,41)"/>
<path d="M0 0 C3.3125 0.75 3.3125 0.75 6 2 C5.71624756 5.40502926 5.23082747 6.76257746 2.8125 9.25 C-0.22349056 11.13906079 -2.46723648 11.67137084 -6 12 C-5.67 11.01 -5.34 10.02 -5 9 C-6.65 9 -8.3 9 -10 9 C-10 8.67 -10 8.34 -10 8 C-6.535 7.505 -6.535 7.505 -3 7 C-3 6.34 -3 5.68 -3 5 C-3.66 4.67 -4.32 4.34 -5 4 C-2.875 1.875 -2.875 1.875 0 0 Z " fill="#174953" transform="translate(444,68)"/>
<path d="M0 0 C0.66 0 1.32 0 2 0 C2 0.66 2 1.32 2 2 C3.32 1.67 4.64 1.34 6 1 C7.70701221 6.89695128 5.95193635 11.41988817 4 17 C3.34 17 2.68 17 2 17 C0.53273202 13.18510326 1.56663581 10.70988378 3 7 C2.01 7 1.02 7 0 7 C-0.33 9.31 -0.66 11.62 -1 14 C-1.66 14 -2.32 14 -3 14 C-2.69249629 11.85344499 -2.3788634 9.70776715 -2.0625 7.5625 C-1.88847656 6.36753906 -1.71445312 5.17257813 -1.53515625 3.94140625 C-1 1 -1 1 0 0 Z " fill="#1A3A4B" transform="translate(358,47)"/>
<path d="M0 0 C2 3 2 3 1.75 5.0625 C1 7 1 7 -1 9 C-3.4375 9.375 -3.4375 9.375 -6 9 C-7.9375 7.3125 -7.9375 7.3125 -9 5 C-8.3125 2.3125 -8.3125 2.3125 -7 0 C-4.27584084 -1.36207958 -2.87220643 -0.86166193 0 0 Z " fill="#34525C" transform="translate(383,30)"/>
<path d="M0 0 C1.875 0.75 1.875 0.75 4 2 C4.28875 2.680625 4.5775 3.36125 4.875 4.0625 C5.431875 5.0215625 5.431875 5.0215625 6 6 C9.05908413 6.81584568 9.05908413 6.81584568 12 7 C12 7.33 12 7.66 12 8 C9.69 8 7.38 8 5 8 C5 8.66 5 9.32 5 10 C5.66 10.33 6.32 10.66 7 11 C2.44262737 10.56179109 -0.57653445 10.14958831 -4 7 C-3.6875 4.625 -3.6875 4.625 -3 2 C-2.01 1.34 -1.02 0.68 0 0 Z " fill="#1F4650" transform="translate(393,69)"/>
<path d="M0 0 C0.33 0 0.66 0 1 0 C1 5.28 1 10.56 1 16 C-0.65 16 -2.3 16 -4 16 C-4.33 16.66 -4.66 17.32 -5 18 C-8.0625 18.625 -8.0625 18.625 -11 19 C-7.5 15.5 -7.5 15.5 -4 12 C-4.32326553 8.40320934 -4.32326553 8.40320934 -5 5 C-4.67 5.66 -4.34 6.32 -4 7 C-3.34 7 -2.68 7 -2 7 C-1.34 4.69 -0.68 2.38 0 0 Z " fill="#204B5E" transform="translate(296,60)"/>
<path d="M0 0 C0.33 0.66 0.66 1.32 1 2 C2.32 1.67 3.64 1.34 5 1 C5.33 5.62 5.66 10.24 6 15 C4.02 15 2.04 15 0 15 C-1.6117046 10.1648862 -1.60116168 4.80348505 0 0 Z " fill="#1E4954" transform="translate(265,55)"/>
<path d="M0 0 C2.375 0.75 2.375 0.75 4.375 1.75 C3.625 6.5 3.625 6.5 1.375 8.75 C-2.00491574 8.3942194 -4.66788438 7.39284201 -7.625 5.75 C-6.25568276 1.64204828 -4.51661169 -0.43015349 0 0 Z " fill="#1D4552" transform="translate(163.625,67.25)"/>
<path d="M0 0 C0.66 0 1.32 0 2 0 C2.38218767 1.65614657 2.71395102 3.32457024 3 5 C2.67 5.33 2.34 5.66 2 6 C1.61913905 11.61769905 1.89638396 15.10583625 5 20 C5.66 20.33 6.32 20.66 7 21 C7 21.66 7 22.32 7 23 C3.87018088 22.66466224 2.99938841 21.99933599 0.8125 19.625 C-2.44434181 14.90819462 -2.41742635 10.54303365 -2 5 C-1 1.9375 -1 1.9375 0 0 Z " fill="#0D3C4A" transform="translate(189,53)"/>
<path d="M0 0 C0.51433594 0.23203125 1.02867188 0.4640625 1.55859375 0.703125 C0.73359375 1.486875 -0.09140625 2.270625 -0.94140625 3.078125 C-3.67129131 5.34033764 -3.67129131 5.34033764 -3.44140625 7.703125 C-8.76352773 8.49578139 -14.09105035 9.13290566 -19.44140625 9.703125 C-16.72643707 6.48096377 -13.20304567 4.80842093 -9.50390625 2.953125 C-8.88322266 2.62441406 -8.26253906 2.29570312 -7.62304688 1.95703125 C-3.01891365 -0.3670999 -3.01891365 -0.3670999 0 0 Z " fill="#3F5F5F" transform="translate(58.44140625,11.296875)"/>
<path d="M0 0 C2.46278801 2.46278801 2.99771255 4.70676982 4 8 C4.66 7.67 5.32 7.34 6 7 C6 7.66 6 8.32 6 9 C8.97 9 11.94 9 15 9 C14.67 9.66 14.34 10.32 14 11 C11.4375 11.625 11.4375 11.625 9 12 C12.465 13.485 12.465 13.485 16 15 C14.68 15.33 13.36 15.66 12 16 C12 15.34 12 14.68 12 14 C10.95199219 13.94392578 10.95199219 13.94392578 9.8828125 13.88671875 C8.97273437 13.82097656 8.06265625 13.75523438 7.125 13.6875 C6.22007812 13.62949219 5.31515625 13.57148437 4.3828125 13.51171875 C2 13 2 13 0 10 C-0.1953125 7.51953125 -0.1953125 7.51953125 -0.125 4.8125 C-0.10695312 3.91144531 -0.08890625 3.01039062 -0.0703125 2.08203125 C-0.04710937 1.39496094 -0.02390625 0.70789062 0 0 Z " fill="#204F5E" transform="translate(232,63)"/>
<path d="M0 0 C0.33 0 0.66 0 1 0 C1 7.92 1 15.84 1 24 C0.34 24 -0.32 24 -1 24 C-1 24.66 -1 25.32 -1 26 C-8.625 24.125 -8.625 24.125 -12 23 C-13.33106622 22.65772583 -14.66400079 22.32248257 -16 22 C-16 21.34 -16 20.68 -16 20 C-14.08364783 19.94576362 -12.16685075 19.90710037 -10.25 19.875 C-9.18265625 19.85179688 -8.1153125 19.82859375 -7.015625 19.8046875 C-4 20 -4 20 0 22 C0 14.74 0 7.48 0 0 Z " fill="#2B5C65" transform="translate(291,25)"/>
<path d="M0 0 C0.66 0 1.32 0 2 0 C2.66 1.98 3.32 3.96 4 6 C4.66 5.34 5.32 4.68 6 4 C6 5.32 6 6.64 6 8 C6.66 8 7.32 8 8 8 C7.67 10.31 7.34 12.62 7 15 C5.68 15.33 4.36 15.66 3 16 C2.30364247 13.71068726 1.61765623 11.4191243 0.9375 9.125 C0.73833984 8.47402344 0.53917969 7.82304688 0.33398438 7.15234375 C-1.11328125 2.2265625 -1.11328125 2.2265625 0 0 Z " fill="#1A424F" transform="translate(344,61)"/>
<path d="M0 0 C1.32 0 2.64 0 4 0 C4.33 3.63 4.66 7.26 5 11 C-1.75 12.125 -1.75 12.125 -4 11 C-4 10.34 -4 9.68 -4 9 C-3.34 8.67 -2.68 8.34 -2 8 C-1.31527335 6.11235097 -1.31527335 6.11235097 -0.875 3.9375 C-0.70742188 3.20402344 -0.53984375 2.47054687 -0.3671875 1.71484375 C-0.24601562 1.14894531 -0.12484375 0.58304687 0 0 Z " fill="#224A61" transform="translate(352,68)"/>
<path d="M0 0 C3.625 -0.1875 3.625 -0.1875 7 0 C8.04449911 3.13349732 7.93423645 3.98968256 7 7 C5.68 7.33 4.36 7.66 3 8 C3.33 6.35 3.66 4.7 4 3 C3.01 3 2.02 3 1 3 C0.34 6.63 -0.32 10.26 -1 14 C-1.66 13.67 -2.32 13.34 -3 13 C-2.88557539 11.39504433 -2.75805306 9.79101881 -2.625 8.1875 C-2.55539062 7.29417969 -2.48578125 6.40085937 -2.4140625 5.48046875 C-2 3 -2 3 0 0 Z " fill="#193D49" transform="translate(363,30)"/>
<path d="M0 0 C0.66 0 1.32 0 2 0 C2 0.99 2 1.98 2 3 C6.65052872 3.26932521 6.65052872 3.26932521 11 2 C10.34 3.32 9.68 4.64 9 6 C7.02 6 5.04 6 3 6 C3 6.99 3 7.98 3 9 C7.95 9 12.9 9 18 9 C18 9.33 18 9.66 18 10 C12.06 10 6.12 10 0 10 C-1.49106457 7.01787087 -1.11941467 4.28390342 -1 1 C-0.67 0.67 -0.34 0.34 0 0 Z " fill="#E8CF78" transform="translate(47,73)"/>
<path d="M0 0 C0.45890625 0.33773437 0.9178125 0.67546875 1.390625 1.0234375 C5.98192426 4.36308951 5.98192426 4.36308951 11 7 C9.1875 8.0625 9.1875 8.0625 7 9 C6.01 8.67 5.02 8.34 4 8 C4 8.66 4 9.32 4 10 C2.35 10.33 0.7 10.66 -1 11 C-1.33 10.34 -1.66 9.68 -2 9 C-1.34 9 -0.68 9 0 9 C-0.99 8.01 -1.98 7.02 -3 6 C-2 4 -1 2 0 0 Z " fill="#2F505C" transform="translate(136,66)"/>
<path d="M0 0 C-0.33 1.65 -0.66 3.3 -1 5 C-2.57925975 5.39180108 -4.16368794 5.76280736 -5.75 6.125 C-6.63171875 6.33382812 -7.5134375 6.54265625 -8.421875 6.7578125 C-11.32875493 7.03088304 -12.56661348 6.53508028 -15 5 C-14.67 3.68 -14.34 2.36 -14 1 C-9.23692563 0.04738513 -4.8333472 -0.08333357 0 0 Z " fill="#194654" transform="translate(287,47)"/>
<path d="M0 0 C2.33294775 -0.04241723 4.66702567 -0.04092937 7 0 C8 1 8 1 8.11352539 3.04125977 C8.10828857 3.91580811 8.10305176 4.79035645 8.09765625 5.69140625 C8.09443359 6.63564453 8.09121094 7.57988281 8.08789062 8.55273438 C8.07951172 9.54595703 8.07113281 10.53917969 8.0625 11.5625 C8.05798828 12.55958984 8.05347656 13.55667969 8.04882812 14.58398438 C8.03700007 17.05604849 8.02051849 19.52799518 8 22 C5.59880941 18.39821412 5.56228678 15.49133631 5.375 11.3125 C5.33632812 10.61060547 5.29765625 9.90871094 5.2578125 9.18554688 C5.1637666 7.45745345 5.0808032 5.72876325 5 4 C2.03 3.505 2.03 3.505 -1 3 C-0.67 2.01 -0.34 1.02 0 0 Z " fill="#295559" transform="translate(229,45)"/>
<path d="M0 0 C0.66 0 1.32 0 2 0 C3.25433458 3.76300374 3.10695422 7.27210909 3.0625 11.1875 C3.05798828 11.93708984 3.05347656 12.68667969 3.04882812 13.45898438 C3.03706354 15.30602383 3.01912865 17.15302213 3 19 C2.01 19 1.02 19 0 19 C-1.12050151 15.63849548 -1.13296652 13.03713274 -1.125 9.5 C-1.12757812 8.3553125 -1.13015625 7.210625 -1.1328125 6.03125 C-1 3 -1 3 0 0 Z " fill="#1E4252" transform="translate(125,45)"/>
<path d="M0 0 C0.66 0 1.32 0 2 0 C2.66 1.98 3.32 3.96 4 6 C7.3 6.33 10.6 6.66 14 7 C14 7.66 14 8.32 14 9 C14.66 9.33 15.32 9.66 16 10 C6.32311348 10.86059267 6.32311348 10.86059267 2.4375 7.6875 C0 5 0 5 -1 2 C-0.67 1.34 -0.34 0.68 0 0 Z " fill="#134253" transform="translate(230,70)"/>
<path d="M0 0 C1.175625 0.5259375 1.175625 0.5259375 2.375 1.0625 C3.24125 1.371875 4.1075 1.68125 5 2 C5.66 1.67 6.32 1.34 7 1 C7 3.64 7 6.28 7 9 C6.01 8.34 5.02 7.68 4 7 C3.01 7.495 3.01 7.495 2 8 C2 7.01 2 6.02 2 5 C1.34 5 0.68 5 0 5 C-0.33 5.99 -0.66 6.98 -1 8 C-1.2475 7.38125 -1.495 6.7625 -1.75 6.125 C-3.20628639 3.64931313 -4.37812506 3.04874998 -7 2 C-4.69 2 -2.38 2 0 2 C0 1.34 0 0.68 0 0 Z " fill="#29495E" transform="translate(408,63)"/>
<path d="M0 0 C0.80179688 0.00451172 1.60359375 0.00902344 2.4296875 0.01367188 C4.41149006 0.02546832 6.39325433 0.04340395 8.375 0.0625 C8.375 0.7225 8.375 1.3825 8.375 2.0625 C6.375 4.0625 6.375 4.0625 3.1171875 4.2578125 C1.84101563 4.23460938 0.56484375 4.21140625 -0.75 4.1875 C-2.67199219 4.16042969 -2.67199219 4.16042969 -4.6328125 4.1328125 C-6.11394531 4.09800781 -6.11394531 4.09800781 -7.625 4.0625 C-7.625 3.4025 -7.625 2.7425 -7.625 2.0625 C-8.615 1.7325 -9.605 1.4025 -10.625 1.0625 C-7.31505287 -0.59247356 -3.63377 -0.03834335 0 0 Z " fill="#1A4150" transform="translate(150.625,75.9375)"/>
<path d="M0 0 C0.99 0 1.98 0 3 0 C3.66 0.99 4.32 1.98 5 3 C5.66 3.33 6.32 3.66 7 4 C5.52307692 9.66153846 5.52307692 9.66153846 2.875 11.375 C2.25625 11.58125 1.6375 11.7875 1 12 C1.33 10.35 1.66 8.7 2 7 C1.01 7 0.02 7 -1 7 C-0.67 4.69 -0.34 2.38 0 0 Z " fill="#193949" transform="translate(214,64)"/>
<path d="M0 0 C1.4540625 0.0309375 1.4540625 0.0309375 2.9375 0.0625 C2.6075 0.7225 2.2775 1.3825 1.9375 2.0625 C1.81007241 3.48624793 1.7356452 4.91499569 1.69140625 6.34375 C1.65853516 7.18550781 1.62566406 8.02726562 1.59179688 8.89453125 C1.53060343 10.67304712 1.47331094 12.4517015 1.41992188 14.23046875 C1.38576172 15.07222656 1.35160156 15.91398437 1.31640625 16.78125 C1.2913501 17.55404297 1.26629395 18.32683594 1.24047852 19.12304688 C0.9375 21.0625 0.9375 21.0625 -1.0625 23.0625 C-1.0625 16.1325 -1.0625 9.2025 -1.0625 2.0625 C-2.0525 1.7325 -3.0425 1.4025 -4.0625 1.0625 C-3.0625 0.0625 -3.0625 0.0625 0 0 Z " fill="#3B626F" transform="translate(254.0625,44.9375)"/>
<path d="M0 0 C0.33 0.99 0.66 1.98 1 3 C0.34 3 -0.32 3 -1 3 C-1 5.31 -1 7.62 -1 10 C-1.66 9.34 -2.32 8.68 -3 8 C-3.66 9.32 -4.32 10.64 -5 12 C-6.625 9.3125 -6.625 9.3125 -8 6 C-7.1875 3.125 -7.1875 3.125 -6 1 C-4.7934375 1.0309375 -4.7934375 1.0309375 -3.5625 1.0625 C-1.06645115 1.29633621 -1.06645115 1.29633621 0 0 Z " fill="#244B5D" transform="translate(342,31)"/>
<path d="M0 0 C0.66 0.33 1.32 0.66 2 1 C1.34 1.66 0.68 2.32 0 3 C-0.40047444 5.32275177 -0.7397104 7.65739357 -1 10 C-1.66 10 -2.32 10 -3 10 C-3 9.34 -3 8.68 -3 8 C-3.66 8 -4.32 8 -5 8 C-5.12375 8.66 -5.2475 9.32 -5.375 10 C-6.14520538 13.69698583 -7.06950663 17.34005942 -8 21 C-8.33 21 -8.66 21 -9 21 C-9.63785821 13.98355965 -7.99806745 9.76491879 -4 4 C-1.6875 1.4375 -1.6875 1.4375 0 0 Z " fill="#526C5E" transform="translate(59,54)"/>
<path d="M0 0 C1.9451 2.91765 2.45276317 4.62537285 3 8 C0.525 9.485 0.525 9.485 -2 11 C-2.33 10.01 -2.66 9.02 -3 8 C-3.66 8 -4.32 8 -5 8 C-5.33 8.66 -5.66 9.32 -6 10 C-6 9.01 -6 8.02 -6 7 C-5.34 7 -4.68 7 -4 7 C-3.896875 6.360625 -3.79375 5.72125 -3.6875 5.0625 C-3.460625 4.381875 -3.23375 3.70125 -3 3 C-2.01 2.67 -1.02 2.34 0 2 C0 1.34 0 0.68 0 0 Z " fill="#214451" transform="translate(316,43)"/>
<path d="M0 0 C1.22589844 0.15275391 1.22589844 0.15275391 2.4765625 0.30859375 C3.41628906 0.43427734 3.41628906 0.43427734 4.375 0.5625 C4.375 1.2225 4.375 1.8825 4.375 2.5625 C1.46899739 3.81914978 -0.42104584 4.5625 -3.625 4.5625 C-3.625 5.5525 -3.625 6.5425 -3.625 7.5625 C-2.965 7.8925 -2.305 8.2225 -1.625 8.5625 C-2.615 9.2225 -3.605 9.8825 -4.625 10.5625 C-4.625 9.2425 -4.625 7.9225 -4.625 6.5625 C-5.615 6.5625 -6.605 6.5625 -7.625 6.5625 C-7.274375 5.94375 -6.92375 5.325 -6.5625 4.6875 C-6.253125 3.98625 -5.94375 3.285 -5.625 2.5625 C-5.955 1.9025 -6.285 1.2425 -6.625 0.5625 C-4.10446405 -0.69776798 -2.7707902 -0.35624445 0 0 Z " fill="#2D5361" transform="translate(141.625,31.4375)"/>
<path d="M0 0 C2.60585556 3.90878334 2.22321871 7.46121966 2 12 C1 13 1 13 -2.5625 13.0625 C-3.696875 13.041875 -4.83125 13.02125 -6 13 C-6 12.01 -6 11.02 -6 10 C-4.35 10 -2.7 10 -1 10 C-1.020625 8.72125 -1.04125 7.4425 -1.0625 6.125 C-1.125 2.25 -1.125 2.25 0 0 Z " fill="#223D40" transform="translate(298,66)"/>
<path d="M0 0 C0.66 0 1.32 0 2 0 C2 0.66 2 1.32 2 2 C14.87 2 27.74 2 41 2 C41 2.33 41 2.66 41 3 C27.14 3 13.28 3 -1 3 C-0.67 2.01 -0.34 1.02 0 0 Z " fill="#7F8A6C" transform="translate(37,21)"/>
<path d="M0 0 C3.13871412 0.07473129 5.29269762 0.38212666 7.69921875 2.484375 C10.41691304 5.56398984 12.23069686 7.9000668 13 12 C12.01 12 11.02 12 10 12 C10 10.35 10 8.7 10 7 C8.68 6.67 7.36 6.34 6 6 C6 5.34 6 4.68 6 4 C4.02 4 2.04 4 0 4 C0 2.68 0 1.36 0 0 Z " fill="#FBE18D" transform="translate(104,0)"/>
<path d="M0 0 C0 0.66 0 1.32 0 2 C-1.175625 2.0928125 -1.175625 2.0928125 -2.375 2.1875 C-3.24125 2.455625 -4.1075 2.72375 -5 3 C-6.18028284 5.15097933 -6.18028284 5.15097933 -7 8 C-7.68867475 9.44702089 -8.39820963 10.88424298 -9.125 12.3125 C-9.47820312 13.00988281 -9.83140625 13.70726562 -10.1953125 14.42578125 C-10.46085938 14.94527344 -10.72640625 15.46476562 -11 16 C-11.33 16 -11.66 16 -12 16 C-11.67 13.03 -11.34 10.06 -11 7 C-10.34 7 -9.68 7 -9 7 C-8.7525 6.21625 -8.505 5.4325 -8.25 4.625 C-7 2 -7 2 -5.0625 0.6875 C-3 0 -3 0 0 0 Z " fill="#173D47" transform="translate(204,49)"/>
<path d="M0 0 C0.66 0 1.32 0 2 0 C2.33 0.66 2.66 1.32 3 2 C4.65 1.34 6.3 0.68 8 0 C8.25 2.3125 8.25 2.3125 8 5 C6.1875 6.8125 6.1875 6.8125 4 8 C3.01 8 2.02 8 1 8 C0.67 5.36 0.34 2.72 0 0 Z " fill="#193E49" transform="translate(311,51)"/>
<path d="M0 0 C0.66 0 1.32 0 2 0 C3.75734451 4.97361654 5.32584613 9.7415998 6 15 C3 14 3 14 2.05078125 12.109375 C-0.41063747 4.24325381 -0.41063747 4.24325381 0 0 Z " fill="#1A3A47" transform="translate(315,64)"/>
<path d="M0 0 C1.65 0 3.3 0 5 0 C5.33 1.65 5.66 3.3 6 5 C6.99 5 7.98 5 9 5 C8.34 7.31 7.68 9.62 7 12 C6.71125 11.360625 6.4225 10.72125 6.125 10.0625 C5.17176549 7.84793921 5.17176549 7.84793921 3 7 C3 6.01 3 5.02 3 4 C2.01 4 1.02 4 0 4 C0 2.68 0 1.36 0 0 Z " fill="#436374" transform="translate(214,60)"/>
<path d="M0 0 C0.33 0 0.66 0 1 0 C1 1.65 1 3.3 1 5 C3.475 5.99 3.475 5.99 6 7 C6.33 6.34 6.66 5.68 7 5 C7.99 5.66 8.98 6.32 10 7 C9.01 7.495 9.01 7.495 8 8 C8.33 8.66 8.66 9.32 9 10 C5.78333296 10.21931821 3.56637697 10.26828383 0.625 8.875 C-1 7 -1 7 -1.3125 3.875 C-1 1 -1 1 0 0 Z " fill="#245066" transform="translate(394,52)"/>
<path d="M0 0 C5.75 0.875 5.75 0.875 8 2 C8 1.34 8 0.68 8 0 C8.66 0.33 9.32 0.66 10 1 C10 2.32 10 3.64 10 5 C9.34 5 8.68 5 8 5 C7.67 6.65 7.34 8.3 7 10 C6.731875 9.360625 6.46375 8.72125 6.1875 8.0625 C5.11332248 5.66868314 5.11332248 5.66868314 2 5 C2.33 3.68 2.66 2.36 3 1 C2.01 0.67 1.02 0.34 0 0 Z " fill="#2C5260" transform="translate(207,48)"/>
<path d="M0 0 C0.33 0 0.66 0 1 0 C0.67 3.3 0.34 6.6 0 10 C-1.32 10.33 -2.64 10.66 -4 11 C-4 10.34 -4 9.68 -4 9 C-4.66 9 -5.32 9 -6 9 C-5.67 6.69 -5.34 4.38 -5 2 C-4.01 3.485 -4.01 3.485 -3 5 C-2.525625 4.175 -2.05125 3.35 -1.5625 2.5 C-1.046875 1.675 -0.53125 0.85 0 0 Z " fill="#294E62" transform="translate(364,38)"/>
<path d="M0 0 C0.93423645 3.01031744 1.04449911 3.86650268 0 7 C0.38932856 9.14255793 0.38932856 9.14255793 1 11 C-0.65 11 -2.3 11 -4 11 C-4.33 11.66 -4.66 12.32 -5 13 C-5.33 10.69 -5.66 8.38 -6 6 C-5.195625 5.566875 -4.39125 5.13375 -3.5625 4.6875 C-0.72153646 3.19525998 -0.72153646 3.19525998 0 0 Z " fill="#2F515D" transform="translate(319,53)"/>
<path d="M0 0 C0.66 0 1.32 0 2 0 C1.85851011 1.6045556 1.71164314 3.20863767 1.5625 4.8125 C1.48128906 5.70582031 1.40007812 6.59914063 1.31640625 7.51953125 C1 10 1 10 0 13 C-0.66 13 -1.32 13 -2 13 C-2.33 13.99 -2.66 14.98 -3 16 C-3.37952295 9.80112515 -2.8352113 5.5522888 0 0 Z " fill="#163641" transform="translate(333,48)"/>
<path d="M0 0 C0.33 0.99 0.66 1.98 1 3 C2.88316159 4.10836423 2.88316159 4.10836423 5 5 C5.99 5.66 6.98 6.32 8 7 C10.0492094 7.45139459 10.0492094 7.45139459 12.1875 7.625 C13.445625 7.74875 14.70375 7.8725 16 8 C12.24702674 10.50198217 10.4817646 10.2000704 6.1640625 9.609375 C4 9 4 9 1.4375 6.6875 C0 4 0 4 0 0 Z " fill="#123D48" transform="translate(194,65)"/>
<path d="M0 0 C0.66 0.33 1.32 0.66 2 1 C1.34 2.32 0.68 3.64 0 5 C-0.99 5 -1.98 5 -3 5 C-3 5.66 -3 6.32 -3 7 C-3.99 7.33 -4.98 7.66 -6 8 C-7.38576923 9.62332967 -8.72641268 11.28724465 -10 13 C-11.32 12.67 -12.64 12.34 -14 12 C-13.07316406 11.21753906 -12.14632812 10.43507813 -11.19140625 9.62890625 C-9.98175093 8.60679439 -8.7721166 7.58465769 -7.5625 6.5625 C-6.64500977 5.7880957 -6.64500977 5.7880957 -5.70898438 4.99804688 C-2.78350052 2.5775409 -2.78350052 2.5775409 0 0 Z " fill="#C8B774" transform="translate(79,56)"/>
<path d="M0 0 C0.66 0 1.32 0 2 0 C2 0.99 2 1.98 2 3 C3.65 2.67 5.3 2.34 7 2 C7 3.98 7 5.96 7 8 C5.68 8 4.36 8 3 8 C3 7.34 3 6.68 3 6 C0.03 6 -2.94 6 -6 6 C-6 5.67 -6 5.34 -6 5 C-2.535 4.505 -2.535 4.505 1 4 C0.67 2.68 0.34 1.36 0 0 Z " fill="#29545F" transform="translate(442,54)"/>
<path d="M0 0 C3.96 0.33 7.92 0.66 12 1 C12 1.66 12 2.32 12 3 C12.66 3.33 13.32 3.66 14 4 C12.41705218 4.05437607 10.83355744 4.09296271 9.25 4.125 C8.36828125 4.14820312 7.4865625 4.17140625 6.578125 4.1953125 C3.8864142 3.99139502 2.30095026 3.36551721 0 2 C0 1.34 0 0.68 0 0 Z " fill="#163C4D" transform="translate(272,76)"/>
<path d="M0 0 C0 0.66 0 1.32 0 2 C0.66 2.33 1.32 2.66 2 3 C-0.8125 4.5625 -0.8125 4.5625 -4 6 C-4.99 5.67 -5.98 5.34 -7 5 C-6.67 4.34 -6.34 3.68 -6 3 C-7.65 3 -9.3 3 -11 3 C-11 2.67 -11 2.34 -11 2 C-7.12315913 0.80712589 -4.08378077 0 0 0 Z " fill="#265363" transform="translate(445,74)"/>
<path d="M0 0 C1.9453125 -0.29296875 1.9453125 -0.29296875 4.125 -0.1875 C5.40375 -0.125625 6.6825 -0.06375 8 0 C7.67 0.99 7.34 1.98 7 3 C5.35 3 3.7 3 2 3 C1.01 5.31 0.02 7.62 -1 10 C-1.33 10 -1.66 10 -2 10 C-2.25 3.375 -2.25 3.375 0 0 Z " fill="#11323E" transform="translate(334,30)"/>
<path d="M0 0 C0.94875 0.04125 1.8975 0.0825 2.875 0.125 C2.215 1.445 1.555 2.765 0.875 4.125 C-0.115 3.795 -1.105 3.465 -2.125 3.125 C-2.785 7.085 -3.445 11.045 -4.125 15.125 C-4.455 15.125 -4.785 15.125 -5.125 15.125 C-5.17886629 13.00027424 -5.21773071 10.87516348 -5.25 8.75 C-5.27320313 7.56664062 -5.29640625 6.38328125 -5.3203125 5.1640625 C-5.04697731 0.91096699 -4.25597461 0.17023898 0 0 Z " fill="#95A2A6" transform="translate(380.125,44.875)"/>
<path d="M0 0 C1 3 1 3 -0.25 6.0625 C-2 9 -2 9 -5 11 C-7.6875 11.125 -7.6875 11.125 -10 11 C-9.21625 10.2575 -8.4325 9.515 -7.625 8.75 C-5.37857225 6.3965995 -4.36627232 4.83013552 -3 2 C-2.01 1.34 -1.02 0.68 0 0 Z " fill="#FBEC90" transform="translate(116,98)"/>
<path d="M0 0 C4.7517398 0.43197635 6.92000054 1.32769295 10 5 C7 7 7 7 4.8125 6.625 C4.214375 6.41875 3.61625 6.2125 3 6 C3.99 6 4.98 6 6 6 C6 5.34 6 4.68 6 4 C2.7 4.33 -0.6 4.66 -4 5 C0 3 0 3 2 3 C2 2.34 2 1.68 2 1 C1.34 0.67 0.68 0.34 0 0 Z " fill="#2C5565" transform="translate(153,72)"/>
<path d="M0 0 C0.99 0 1.98 0 3 0 C3 3.96 3 7.92 3 12 C2.01 12 1.02 12 0 12 C0 8.04 0 4.08 0 0 Z " fill="#16464C" transform="translate(376,64)"/>
<path d="M0 0 C0.99 0.33 1.98 0.66 3 1 C2.34 1 1.68 1 1 1 C1 1.66 1 2.32 1 3 C2.65 2.34 4.3 1.68 6 1 C6.66 4.3 7.32 7.6 8 11 C7.01 10.67 6.02 10.34 5 10 C4.67 8.35 4.34 6.7 4 5 C3.34 5 2.68 5 2 5 C1.67 5.66 1.34 6.32 1 7 C0.67 4.69 0.34 2.38 0 0 Z " fill="#2B4F61" transform="translate(338,43)"/>
<path d="M0 0 C1.32 1.65 2.64 3.3 4 5 C3.16855469 5.72316406 3.16855469 5.72316406 2.3203125 6.4609375 C1.59585938 7.09257813 0.87140625 7.72421875 0.125 8.375 C-0.95394531 9.31472656 -0.95394531 9.31472656 -2.0546875 10.2734375 C-3.4076598 11.47426834 -4.7208345 12.7208345 -6 14 C-6 12.68 -6 11.36 -6 10 C-5.34 10 -4.68 10 -4 10 C-4 9.34 -4 8.68 -4 8 C-3.34 8 -2.68 8 -2 8 C-1.855625 6.865625 -1.71125 5.73125 -1.5625 4.5625 C-1 1 -1 1 0 0 Z " fill="#32575B" transform="translate(57,44)"/>
<path d="M0 0 C1.134375 0.020625 2.26875 0.04125 3.4375 0.0625 C3.7675 1.7125 4.0975 3.3625 4.4375 5.0625 C4.1075 4.4025 3.7775 3.7425 3.4375 3.0625 C2.1175 3.0625 0.7975 3.0625 -0.5625 3.0625 C-0.5625 4.0525 -0.5625 5.0425 -0.5625 6.0625 C-1.5525 6.0625 -2.5425 6.0625 -3.5625 6.0625 C-3.94468767 4.40635343 -4.27645102 2.73792976 -4.5625 1.0625 C-3.5625 0.0625 -3.5625 0.0625 0 0 Z " fill="#193844" transform="translate(308.5625,29.9375)"/>
<path d="M0 0 C2.475 0.495 2.475 0.495 5 1 C5.33 2.65 5.66 4.3 6 6 C4.125 6.625 4.125 6.625 2 7 C0 5 0 5 -0.125 2.375 C-0.08375 1.59125 -0.0425 0.8075 0 0 Z " fill="#2A4753" transform="translate(406,48)"/>
<path d="M0 0 C0.8125 1.6875 0.8125 1.6875 1 4 C-1.125 6.8125 -1.125 6.8125 -4 9 C-6.8125 8.8125 -6.8125 8.8125 -9 8 C-6.17493137 5.0702992 -3.21203935 2.49825283 0 0 Z " fill="#CBBC73" transform="translate(70,41)"/>
<path d="M0 0 C0.99 1.485 0.99 1.485 2 3 C4.51213618 5.84708767 6.18515827 7.45502261 10 8 C10 8.66 10 9.32 10 10 C6.81863606 10.21691118 4.56030453 10.25066255 1.625 8.9375 C-0.78794727 6.06052441 -0.2734643 3.62340201 0 0 Z " fill="#123A49" transform="translate(391,54)"/>
<path d="M0 0 C0.66 0 1.32 0 2 0 C2.99 3.63 3.98 7.26 5 11 C3.68 11 2.36 11 1 11 C0.63890458 9.35567294 0.28629924 7.7094792 -0.0625 6.0625 C-0.25972656 5.14597656 -0.45695312 4.22945312 -0.66015625 3.28515625 C-0.77230469 2.53105469 -0.88445312 1.77695312 -1 1 C-0.67 0.67 -0.34 0.34 0 0 Z " fill="#133847" transform="translate(319,57)"/>
<path d="M0 0 C-0.99 0.66 -1.98 1.32 -3 2 C-6.00807169 4.78796888 -8.43999583 7.17089886 -10 11 C-10.66 11 -11.32 11 -12 11 C-11.80244399 6.75254576 -11.24463336 5.25575306 -8.25 2.125 C-5.0005274 0.00034484 -3.75572342 -0.55231227 0 0 Z " fill="#0C303D" transform="translate(278,46)"/>
<path d="M0 0 C1.74216797 0.05414063 1.74216797 0.05414063 3.51953125 0.109375 C4.39996094 0.15578125 5.28039062 0.2021875 6.1875 0.25 C6.1875 0.58 6.1875 0.91 6.1875 1.25 C5.45144531 1.27578125 4.71539062 1.3015625 3.95703125 1.328125 C-3.75668163 1.7192495 -3.75668163 1.7192495 -9.8125 6.25 C-10.1425 6.91 -10.4725 7.57 -10.8125 8.25 C-11.4725 8.25 -12.1325 8.25 -12.8125 8.25 C-12.49532813 5.28972924 -11.82821727 4.26571727 -9.6875 2.125 C-6.16098536 -0.17490085 -4.16524382 -0.16829268 0 0 Z " fill="#0B3640" transform="translate(434.8125,45.75)"/>
<path d="M0 0 C0.66 0 1.32 0 2 0 C1.47731534 2.76276177 0.89130413 5.3260876 0 8 C-0.66 8 -1.32 8 -2 8 C-2 11.3 -2 14.6 -2 18 C-2.33 18 -2.66 18 -3 18 C-3.08150744 15.93816367 -3.1394194 13.87538651 -3.1875 11.8125 C-3.22230469 10.66394531 -3.25710937 9.51539063 -3.29296875 8.33203125 C-2.97436317 4.70842376 -2.21947332 2.85360856 0 0 Z " fill="#133D41" transform="translate(134,41)"/>
<path d="M0 0 C2.125 0.375 2.125 0.375 4 1 C1.13463296 5.07763771 -1.43041625 7.02677065 -6 9 C-6.33 8.01 -6.66 7.02 -7 6 C-6 5 -6 5 -3.4375 4.9375 C-2.2309375 4.9684375 -2.2309375 4.9684375 -1 5 C-1.33 4.01 -1.66 3.02 -2 2 C-1.34 1.34 -0.68 0.68 0 0 Z " fill="#30535B" transform="translate(67,39)"/>
<path d="M0 0 C2 3.75 2 3.75 2 6 C-4.75 7.125 -4.75 7.125 -7 6 C-7 5.34 -7 4.68 -7 4 C-3.535 3.505 -3.535 3.505 0 3 C0 2.01 0 1.02 0 0 Z " fill="#3A5962" transform="translate(355,73)"/>
<path d="M0 0 C1.65 0.99 3.3 1.98 5 3 C5 2.34 5 1.68 5 1 C5.66 1.33 6.32 1.66 7 2 C7 2.66 7 3.32 7 4 C8.32 4.66 9.64 5.32 11 6 C9.04196493 6.05389087 7.08351091 6.09274217 5.125 6.125 C4.03445313 6.14820312 2.94390625 6.17140625 1.8203125 6.1953125 C-1 6 -1 6 -3 4 C-2.34 3.67 -1.68 3.34 -1 3 C-0.67 2.01 -0.34 1.02 0 0 Z " fill="#234F60" transform="translate(272,71)"/>
<path d="M0 0 C0.33 0.66 0.66 1.32 1 2 C1.99 2 2.98 2 4 2 C4 3.98 4 5.96 4 8 C2.68 8 1.36 8 0 8 C0 6.68 0 5.36 0 4 C-1.32 3.67 -2.64 3.34 -4 3 C-2.68 2.01 -1.36 1.02 0 0 Z " fill="#345664" transform="translate(212,69)"/>
<path d="M0 0 C0.66 0 1.32 0 2 0 C2 2.64 2 5.28 2 8 C0.02 8.99 0.02 8.99 -2 10 C-1.85950482 8.52031676 -1.71245174 7.04125484 -1.5625 5.5625 C-1.48128906 4.73878906 -1.40007812 3.91507813 -1.31640625 3.06640625 C-1 1 -1 1 0 0 Z " fill="#123A45" transform="translate(326,56)"/>
<path d="M0 0 C0.66 0 1.32 0 2 0 C2.33 4.62 2.66 9.24 3 14 C2.01 14 1.02 14 0 14 C0 9.38 0 4.76 0 0 Z " fill="#214B60" transform="translate(268,56)"/>
<path d="M0 0 C2.1793144 1.75864246 2.93686419 2.69396 3.51171875 5.48046875 C3.56972656 6.37378906 3.62773437 7.26710938 3.6875 8.1875 C3.75324219 9.08855469 3.81898438 9.98960938 3.88671875 10.91796875 C3.92410156 11.60503906 3.96148437 12.29210938 4 13 C1.7522025 10.94766315 0.9977758 9.99332739 0 7 C-0.03954234 4.66700175 -0.04401732 2.33291811 0 0 Z " fill="#123641" transform="translate(345,45)"/>
<path d="M0 0 C5.71658336 -0.45732667 8.48649253 0.47726246 13 4 C12.67 5.32 12.34 6.64 12 8 C11.5359375 7.1028125 11.5359375 7.1028125 11.0625 6.1875 C7.98821821 2.9268981 4.23990736 2.1733077 0 1 C0 0.67 0 0.34 0 0 Z " fill="#0F3840" transform="translate(401,45)"/>
<path d="M0 0 C0.82273185 2.36734455 1.10990889 3.64262754 0.36328125 6.0703125 C0.01652344 6.74835937 -0.33023438 7.42640625 -0.6875 8.125 C-1.02136719 8.80820312 -1.35523437 9.49140625 -1.69921875 10.1953125 C-3.22681238 12.31467663 -4.60786878 13.02300325 -7 14 C-5.23570801 9.02790438 -2.6060834 4.56561939 0 0 Z " fill="#C7B475" transform="translate(98,31)"/>
<path d="M0 0 C0.99 0.33 1.98 0.66 3 1 C2.06409496 2.1055189 1.12620142 3.20935453 0.1875 4.3125 C-0.33457031 4.92738281 -0.85664063 5.54226562 -1.39453125 6.17578125 C-2.87172469 7.85424679 -4.40039131 9.43882034 -6 11 C-6.33 10.01 -6.66 9.02 -7 8 C-5.56640625 5.95703125 -5.56640625 5.95703125 -3.5625 3.8125 C-2.90378906 3.09707031 -2.24507812 2.38164063 -1.56640625 1.64453125 C-1.04949219 1.10183594 -0.53257812 0.55914062 0 0 Z " fill="#193842" transform="translate(134,33)"/>
<path d="M0 0 C0 0.66 0 1.32 0 2 C-3.50776784 3.60355101 -6.14354879 4.22036864 -10 4 C-10.33 3.01 -10.66 2.02 -11 1 C-9.5437328 0.63743142 -8.08488815 0.28520207 -6.625 -0.0625 C-5.40683594 -0.35833984 -5.40683594 -0.35833984 -4.1640625 -0.66015625 C-2 -1 -2 -1 0 0 Z " fill="#113E4C" transform="translate(289,72)"/>
<path d="M0 0 C0.66 0 1.32 0 2 0 C1.85831863 1.43791516 1.71148957 2.8753237 1.5625 4.3125 C1.48128906 5.11300781 1.40007812 5.91351563 1.31640625 6.73828125 C1 9 1 9 0 12 C-0.66 12 -1.32 12 -2 12 C-1.85831863 10.56208484 -1.71148957 9.1246763 -1.5625 7.6875 C-1.48128906 6.88699219 -1.40007812 6.08648437 -1.31640625 5.26171875 C-1 3 -1 3 0 0 Z " fill="#13343B" transform="translate(358,65)"/>
<path d="M0 0 C1.98 0 3.96 0 6 0 C5.67 1.65 5.34 3.3 5 5 C4.67 4.01 4.34 3.02 4 2 C3.34 2 2.68 2 2 2 C1.87625 2.969375 1.7525 3.93875 1.625 4.9375 C1.41875 5.948125 1.2125 6.95875 1 8 C0.01 8.495 0.01 8.495 -1 9 C-0.67 6.03 -0.34 3.06 0 0 Z " fill="#274B5D" transform="translate(331,46)"/>
<path d="M0 0 C0.66 0.99 1.32 1.98 2 3 C1 5 1 5 -0.875 5.6875 C-3 6 -3 6 -6 5 C-6.33 5.99 -6.66 6.98 -7 8 C-7 6.68 -7 5.36 -7 4 C-6.34 4 -5.68 4 -5 4 C-5 3.01 -5 2.02 -5 1 C-3.35 0.67 -1.7 0.34 0 0 Z " fill="#2B4F60" transform="translate(313,32)"/>
<path d="M0 0 C1.60407328 -0.02708567 3.2082785 -0.04643483 4.8125 -0.0625 C5.70582031 -0.07410156 6.59914062 -0.08570312 7.51953125 -0.09765625 C10 0 10 0 13 1 C13 1.66 13 2.32 13 3 C8.71 2.67 4.42 2.34 0 2 C0 1.34 0 0.68 0 0 Z " fill="#153C45" transform="translate(147,29)"/>
<path d="M0 0 C0.58265625 0.21914062 1.1653125 0.43828125 1.765625 0.6640625 C0.8375 1.2621875 -0.090625 1.8603125 -1.046875 2.4765625 C-4.7371888 5.0091308 -6.76620764 6.96181146 -9.234375 10.6640625 C-9.671875 8.5390625 -9.671875 8.5390625 -9.234375 5.6640625 C-4.01595085 -0.60379681 -4.01595085 -0.60379681 0 0 Z " fill="#FEF8A0" transform="translate(15.234375,0.3359375)"/>
<path d="M0 0 C1.051875 0.4640625 1.051875 0.4640625 2.125 0.9375 C5.08936657 2.03302678 7.87698108 2.56422992 11 3 C11 3.33 11 3.66 11 4 C8.69 4 6.38 4 4 4 C4 4.66 4 5.32 4 6 C4.66 6.33 5.32 6.66 6 7 C3.69 6.67 1.38 6.34 -1 6 C-0.01 5.67 0.98 5.34 2 5 C2 4.34 2 3.68 2 3 C1.34 3 0.68 3 0 3 C0 2.01 0 1.02 0 0 Z " fill="#245865" transform="translate(394,73)"/>
<path d="M0 0 C0.66 0 1.32 0 2 0 C3.31626692 3.61973402 4 6.09567131 4 10 C3.01 9.67 2.02 9.34 1 9 C-0.25 5.5625 -0.25 5.5625 -1 2 C-0.67 1.34 -0.34 0.68 0 0 Z " fill="#13334F" transform="translate(344,61)"/>
<path d="M0 0 C2.97 0 5.94 0 9 0 C9.33 1.98 9.66 3.96 10 6 C7.03824877 5.38722388 5.61941217 4.74627478 3 3 C3 2.34 3 1.68 3 1 C2.01 0.67 1.02 0.34 0 0 Z " fill="#183D4E" transform="translate(283,50)"/>
<path d="M0 0 C0.33 0.66 0.66 1.32 1 2 C1.66 2 2.32 2 3 2 C3.66 3.65 4.32 5.3 5 7 C5.66 7 6.32 7 7 7 C6.67 7.99 6.34 8.98 6 10 C2.26115668 7.34345343 0.35021826 5.41889613 -1 1 C-0.67 0.67 -0.34 0.34 0 0 Z " fill="#0C2D47" transform="translate(420,67)"/>
<path d="M0 0 C0.66 0 1.32 0 2 0 C2 1.98 2 3.96 2 6 C1.01 6.495 1.01 6.495 0 7 C-0.65772428 10.02934491 -0.65772428 10.02934491 -1 13 C-1.33 13 -1.66 13 -2 13 C-2.05447047 11.58376784 -2.09300508 10.16691809 -2.125 8.75 C-2.14820313 7.96109375 -2.17140625 7.1721875 -2.1953125 6.359375 C-1.9828378 3.79268059 -1.28654105 2.2083933 0 0 Z " fill="#D8C475" transform="translate(47,67)"/>
<path d="M0 0 C1.67110042 2.96178773 2.32682752 5.37071192 2.625 8.75 C2.69976562 9.54921875 2.77453125 10.3484375 2.8515625 11.171875 C2.90054687 11.77515625 2.94953125 12.3784375 3 13 C2.01 12.67 1.02 12.34 0 12 C-1.28571429 3.42857143 -1.28571429 3.42857143 0 0 Z " fill="#2C535C" transform="translate(419,56)"/>
<path d="M0 0 C0.33 0 0.66 0 1 0 C1.33 2.97 1.66 5.94 2 9 C2.33 9 2.66 9 3 9 C3 10.98 3 12.96 3 15 C2.01 15 1.02 15 0 15 C-1.09651823 11.58860997 -0.94215473 8.79344419 -0.5625 5.25 C-0.46066406 4.26515625 -0.35882813 3.2803125 -0.25390625 2.265625 C-0.17011719 1.51796875 -0.08632812 0.7703125 0 0 Z " fill="#153946" transform="translate(125,49)"/>
<path d="M0 0 C-0.99 0.495 -0.99 0.495 -2 1 C-2 1.66 -2 2.32 -2 3 C-4.90600261 4.25664978 -6.79604584 5 -10 5 C-10 4.01 -10 3.02 -10 2 C-6.49223216 0.39644899 -3.85645121 -0.22036864 0 0 Z " fill="#203D4B" transform="translate(148,34)"/>
<path d="M0 0 C2.33294775 -0.04241723 4.66702567 -0.04092937 7 0 C8 1 8 1 8.0625 4.0625 C8.041875 5.031875 8.02125 6.00125 8 7 C7.01 7.495 7.01 7.495 6 8 C6 6.02 6 4.04 6 2 C4.02 2 2.04 2 0 2 C0 1.34 0 0.68 0 0 Z " fill="#69765A" transform="translate(67,31)"/>
<path d="M0 0 C1.2065625 0.0309375 1.2065625 0.0309375 2.4375 0.0625 C3.4375 4.9375 3.4375 4.9375 3.4375 6.0625 C1.1275 6.0625 -1.1825 6.0625 -3.5625 6.0625 C-2.5725 5.0725 -1.5825 4.0825 -0.5625 3.0625 C-1.5525 2.4025 -2.5425 1.7425 -3.5625 1.0625 C-2.5625 0.0625 -2.5625 0.0625 0 0 Z " fill="#4D7079" transform="translate(150.5625,30.9375)"/>
<path d="M0 0 C3.63 0 7.26 0 11 0 C11 0.66 11 1.32 11 2 C6.58937864 3.0257259 4.07369424 3.03684712 0 1 C0 0.67 0 0.34 0 0 Z " fill="#153E49" transform="translate(144,73)"/>
<path d="M0 0 C0.66 0 1.32 0 2 0 C3.125 7.75 3.125 7.75 2 10 C1.34 10 0.68 10 0 10 C0 6.7 0 3.4 0 0 Z " fill="#113745" transform="translate(292,57)"/>
<path d="M0 0 C2.4294516 3.6441774 2.16179575 5.71241272 2 10 C1.01 10 0.02 10 -1 10 C-1.125 2.25 -1.125 2.25 0 0 Z " fill="#244450" transform="translate(221,55)"/>
<path d="M0 0 C3.125 0.375 3.125 0.375 6 1 C6 1.66 6 2.32 6 3 C5.34 3 4.68 3 4 3 C4 3.66 4 4.32 4 5 C2.68 5.33 1.36 5.66 0 6 C0 5.01 0 4.02 0 3 C-0.66 2.67 -1.32 2.34 -2 2 C-1.34 1.34 -0.68 0.68 0 0 Z " fill="#153D49" transform="translate(428,48)"/>
<path d="M0 0 C-3.5087188 3.09592835 -6.49197399 4.74194623 -11 6 C-10.03628506 3.59071265 -9.34789837 2.23992991 -7.1875 0.75 C-4.67678635 -0.11081611 -2.63651351 -0.14647297 0 0 Z " fill="#153242" transform="translate(202,46)"/>
<path d="M0 0 C0.99 0 1.98 0 3 0 C3.375 7.5 3.375 7.5 0 12 C0 8.04 0 4.08 0 0 Z " fill="#204D58" transform="translate(232,49)"/>
<path d="M0 0 C2.31 0 4.62 0 7 0 C7.33 1.32 7.66 2.64 8 4 C5.03 3.67 2.06 3.34 -1 3 C-0.67 2.01 -0.34 1.02 0 0 Z " fill="#607677" transform="translate(229,45)"/>
<path d="M0 0 C0.66 0 1.32 0 2 0 C2.66 1.98 3.32 3.96 4 6 C4.66 6 5.32 6 6 6 C6 6.66 6 7.32 6 8 C4.1875 7.8125 4.1875 7.8125 2 7 C0.1875 4.5625 0.1875 4.5625 -1 2 C-0.67 1.34 -0.34 0.68 0 0 Z " fill="#10343D" transform="translate(230,70)"/>
<path d="M0 0 C0.99 0 1.98 0 3 0 C5.10770759 2.88834003 6 4.38462395 6 8 C4.125 7.375 4.125 7.375 2 6 C0.75 2.875 0.75 2.875 0 0 Z " fill="#113F48" transform="translate(424,65)"/>
<path d="M0 0 C0.99 0.33 1.98 0.66 3 1 C3.625 3.375 3.625 3.375 4 6 C3.34 6.66 2.68 7.32 2 8 C1.67 7.01 1.34 6.02 1 5 C0.34 5 -0.32 5 -1 5 C-1.33 5.66 -1.66 6.32 -2 7 C-2 6.01 -2 5.02 -2 4 C-1.34 4 -0.68 4 0 4 C0 2.68 0 1.36 0 0 Z " fill="#295164" transform="translate(312,46)"/>
<path d="M0 0 C-0.57344937 2.86724686 -0.8614515 3.8614515 -3 6 C-4.32 6 -5.64 6 -7 6 C-7 4 -7 4 -5.1875 1.875 C-3 0 -3 0 0 0 Z " fill="#13333D" transform="translate(168,70)"/>
<path d="M0 0 C0.66 0.33 1.32 0.66 2 1 C2 1.66 2 2.32 2 3 C1.34 3 0.68 3 0 3 C-0.33 3.66 -0.66 4.32 -1 5 C-4.0625 5.625 -4.0625 5.625 -7 6 C-2.25 1.125 -2.25 1.125 0 0 Z " fill="#3C5E6C" transform="translate(292,73)"/>
<path d="M0 0 C0.66 0 1.32 0 2 0 C1.34 3.3 0.68 6.6 0 10 C-0.66 10 -1.32 10 -2 10 C-1.85950482 8.52031676 -1.71245174 7.04125484 -1.5625 5.5625 C-1.48128906 4.73878906 -1.40007812 3.91507813 -1.31640625 3.06640625 C-1 1 -1 1 0 0 Z " fill="#11333F" transform="translate(357,51)"/>
<path d="M0 0 C2 0 2 0 4.625 2.375 C7 5 7 5 7 7 C3.76509224 6.44225728 2.02144994 5.62788492 0 3 C0 2.01 0 1.02 0 0 Z " fill="#1D3E46" transform="translate(129,68)"/>
<path d="M0 0 C0.99 0.33 1.98 0.66 3 1 C3 1.66 3 2.32 3 3 C2.1028125 3.1546875 2.1028125 3.1546875 1.1875 3.3125 C-1.28243264 4.08876455 -2.32251235 5.07088921 -4 7 C-3.6875 4.625 -3.6875 4.625 -3 2 C-2.01 1.34 -1.02 0.68 0 0 Z " fill="#374A5A" transform="translate(393,69)"/>
<path d="M0 0 C3 1 3 1 5 4 C5 5.32 5 6.64 5 8 C4.34 8 3.68 8 3 8 C0.95830515 5.09451118 0 3.59857954 0 0 Z " fill="#103B44" transform="translate(216,49)"/>
<path d="M0 0 C2.31 0.33 4.62 0.66 7 1 C7 1.66 7 2.32 7 3 C7.99 3.33 8.98 3.66 10 4 C7.36 4 4.72 4 2 4 C2.66 3.67 3.32 3.34 4 3 C4 2.34 4 1.68 4 1 C2.35 1.33 0.7 1.66 -1 2 C-0.67 1.34 -0.34 0.68 0 0 Z " fill="#295866" transform="translate(430,48)"/>
<path d="M0 0 C0 0.99 0 1.98 0 3 C-2.31 3 -4.62 3 -7 3 C-7 2.01 -7 1.02 -7 0 C-4.3333581 -1.33332095 -2.83319697 -0.67102033 0 0 Z " fill="#3C575A" transform="translate(383,30)"/>
<path d="M0 0 C0.625 1.8125 0.625 1.8125 1 4 C0.01 5.485 0.01 5.485 -1 7 C-4.625 7.1875 -4.625 7.1875 -8 7 C-5.33333333 5.66666667 -2.66666667 4.33333333 0 3 C0 2.01 0 1.02 0 0 Z " fill="#0C384A" transform="translate(408,68)"/>
<path d="M0 0 C0.5534764 2.07553648 1 3.84365964 1 6 C0.34 6 -0.32 6 -1 6 C-1.33 6.66 -1.66 7.32 -2 8 C-2 7.01 -2 6.02 -2 5 C-2.99 4.67 -3.98 4.34 -5 4 C-3.35 2.68 -1.7 1.36 0 0 Z " fill="#42605C" transform="translate(50,42)"/>
<path d="M0 0 C2.31 0.33 4.62 0.66 7 1 C6.67 1.99 6.34 2.98 6 4 C4.35 4 2.7 4 1 4 C0.67 2.68 0.34 1.36 0 0 Z " fill="#14363F" transform="translate(376,35)"/>
<path d="M0 0 C2.31 0 4.62 0 7 0 C7.33 0.99 7.66 1.98 8 3 C7.34 3 6.68 3 6 3 C5.67 3.66 5.34 4.32 5 5 C5 4.01 5 3.02 5 2 C3.35 2 1.7 2 0 2 C0 1.34 0 0.68 0 0 Z " fill="#3C4E52" transform="translate(363,30)"/>
<path d="M0 0 C2.76276177 0.52268466 5.3260876 1.10869587 8 2 C8.33 1.34 8.66 0.68 9 0 C8.67 1.98 8.34 3.96 8 6 C7.236875 5.38125 6.47375 4.7625 5.6875 4.125 C3.00374191 1.94402948 3.00374191 1.94402948 0 0 Z " fill="#D8C476" transform="translate(94,6)"/>
<path d="M0 0 C2.64752004 2.57784846 4.94432065 4.91648098 7 8 C3.76912579 7.44295272 1.97638863 6.66812465 0 4 C0 2.68 0 1.36 0 0 Z " fill="#FDF89E" transform="translate(6,101)"/>
<path d="M0 0 C2.31 0 4.62 0 7 0 C7 0.99 7 1.98 7 3 C4.69 2.67 2.38 2.34 0 2 C0 1.34 0 0.68 0 0 Z " fill="#124457" transform="translate(398,77)"/>
<path d="M0 0 C0.99 0 1.98 0 3 0 C2.67 1.65 2.34 3.3 2 5 C0.68 5.33 -0.64 5.66 -2 6 C-2 5.34 -2 4.68 -2 4 C-1.34 4 -0.68 4 0 4 C0 2.68 0 1.36 0 0 Z " fill="#254650" transform="translate(447,70)"/>
<path d="M0 0 C1.32 0 2.64 0 4 0 C4 0.99 4 1.98 4 3 C4.99 3.33 5.98 3.66 7 4 C4 5 4 5 1.8125 4.0625 C1.214375 3.711875 0.61625 3.36125 0 3 C0 2.01 0 1.02 0 0 Z " fill="#365D6C" transform="translate(272,49)"/>
<path d="M0 0 C3 3 3 3 3.1875 6.1875 C3.0946875 7.5796875 3.0946875 7.5796875 3 9 C2.34 9 1.68 9 1 9 C0.67 6.03 0.34 3.06 0 0 Z " fill="#113943" transform="translate(313,36)"/>
<path d="M0 0 C2.31 0.33 4.62 0.66 7 1 C6.67 1.99 6.34 2.98 6 4 C4.35 3.67 2.7 3.34 1 3 C0.67 2.01 0.34 1.02 0 0 Z " fill="#1B333A" transform="translate(158,37)"/>
<path d="M0 0 C0.33 0.66 0.66 1.32 1 2 C2.65 1.67 4.3 1.34 6 1 C6 1.66 6 2.32 6 3 C5.01 3 4.02 3 3 3 C2.67 3.66 2.34 4.32 2 5 C1.01 5.495 1.01 5.495 0 6 C-1.125 2.25 -1.125 2.25 0 0 Z " fill="#355967" transform="translate(375,31)"/>
<path d="M0 0 C1.98 0 3.96 0 6 0 C5.67 0.99 5.34 1.98 5 3 C3.35 3 1.7 3 0 3 C0 2.01 0 1.02 0 0 Z " fill="#114652" transform="translate(433,77)"/>
<path d="M0 0 C1.98 0 3.96 0 6 0 C6 0.99 6 1.98 6 3 C4.02 3 2.04 3 0 3 C0 2.01 0 1.02 0 0 Z " fill="#274551" transform="translate(376,76)"/>
<path d="M0 0 C0.99 0.33 1.98 0.66 3 1 C3 2.65 3 4.3 3 6 C2.01 6 1.02 6 0 6 C-1.125 2.25 -1.125 2.25 0 0 Z " fill="#17343D" transform="translate(247,71)"/>
<path d="M0 0 C0.33 0.66 0.66 1.32 1 2 C1.99 2.33 2.98 2.66 4 3 C4.6875 5.0625 4.6875 5.0625 5 7 C4.01 7 3.02 7 2 7 C0 4 0 4 0 0 Z " fill="#122935" transform="translate(266,68)"/>
<path d="M0 0 C3.375 -0.1875 3.375 -0.1875 7 0 C7.66 0.99 8.32 1.98 9 3 C8.34 3 7.68 3 7 3 C6.67 3.99 6.34 4.98 6 6 C5.7525 5.38125 5.505 4.7625 5.25 4.125 C3.79371361 1.64931313 2.62187494 1.04874998 0 0 Z " fill="#375767" transform="translate(401,65)"/>
<path d="M0 0 C2.56687367 3.8503105 1.83288724 5.58569763 1 10 C-1.56687367 6.1496895 -0.83288724 4.41430237 0 0 Z " fill="#37505D" transform="translate(349,55)"/>
<path d="M0 0 C0.66 0.66 1.32 1.32 2 2 C1.34 2.66 0.68 3.32 0 4 C-0.45811675 5.97235333 -0.45811675 5.97235333 -0.625 8.125 C-0.74875 9.40375 -0.8725 10.6825 -1 12 C-1.33 12 -1.66 12 -2 12 C-2 8.37 -2 4.74 -2 1 C-1.34 0.67 -0.68 0.34 0 0 Z " fill="#0E343D" transform="translate(273,54)"/>
<path d="M0 0 C0.66 0 1.32 0 2 0 C2.33 1.65 2.66 3.3 3 5 C1.68 5 0.36 5 -1 5 C-0.67 3.35 -0.34 1.7 0 0 Z " fill="#19404A" transform="translate(189,53)"/>
<path d="M0 0 C1.24546405 2.49092811 0.7767578 3.41080733 0 6 C-1.65 6.33 -3.3 6.66 -5 7 C-1.125 1.125 -1.125 1.125 0 0 Z " fill="#CBBF7F" transform="translate(90,45)"/>
<path d="M0 0 C0.66 0.66 1.32 1.32 2 2 C0.35 3.65 -1.3 5.3 -3 7 C-3.33 6.01 -3.66 5.02 -4 4 C-3.34 4 -2.68 4 -2 4 C-2 3.34 -2 2.68 -2 2 C-1.34 2 -0.68 2 0 2 C0 1.34 0 0.68 0 0 Z " fill="#0D293D" transform="translate(413,71)"/>
<path d="M0 0 C2 3 2 3 2 7 C2.66 7 3.32 7 4 7 C3.34 8.32 2.68 9.64 2 11 C1.67 11 1.34 11 1 11 C-1.125 3.375 -1.125 3.375 0 0 Z " fill="#0C464E" transform="translate(249,67)"/>
<path d="M0 0 C0.33 1.98 0.66 3.96 1 6 C-2.16115776 4.63016497 -2.9927092 4.0109362 -5 1 C-2 0 -2 0 0 0 Z " fill="#1A4450" transform="translate(212,73)"/>
<path d="M0 0 C2 0 2 0 4.125 1.875 C6 4 6 4 6 6 C3.13275314 5.42655063 2.1385485 5.1385485 0 3 C0 2.01 0 1.02 0 0 Z " fill="#17343F" transform="translate(190,70)"/>
<path d="M0 0 C0.66 0 1.32 0 2 0 C3.25664978 2.90600261 4 4.79604584 4 8 C3.34 8 2.68 8 2 8 C0.23537317 4.91190305 0 3.76687864 0 0 Z " fill="#203E43" transform="translate(132,60)"/>
<path d="M0 0 C0.99 0 1.98 0 3 0 C3 1.98 3 3.96 3 6 C1.68 6 0.36 6 -1 6 C-1 5.34 -1 4.68 -1 4 C-0.34 4 0.32 4 1 4 C0.67 2.68 0.34 1.36 0 0 Z " fill="#204E5C" transform="translate(446,56)"/>
<path d="M0 0 C0.66 0.33 1.32 0.66 2 1 C2 2.32 2 3.64 2 5 C0.68 5.33 -0.64 5.66 -2 6 C-2 5.01 -2 4.02 -2 3 C-2.66 2.67 -3.32 2.34 -4 2 C-2.68 2 -1.36 2 0 2 C0 1.34 0 0.68 0 0 Z " fill="#174254" transform="translate(446,51)"/>
<path d="M0 0 C2.5 1.375 2.5 1.375 5 3 C5 3.66 5 4.32 5 5 C2.69 4.67 0.38 4.34 -2 4 C-2 3.34 -2 2.68 -2 2 C-1.34 2 -0.68 2 0 2 C0 1.34 0 0.68 0 0 Z " fill="#2E4E5B" transform="translate(162,34)"/>
</svg>
